<?xml version="1.0" standalone="no"?>
<!DOCTYPE svg PUBLIC "-//W3C//DTD SVG 20010904//EN"
 "http://www.w3.org/TR/2001/REC-SVG-20010904/DTD/svg10.dtd">
<svg version="1.0" xmlns="http://www.w3.org/2000/svg"
 width="813.000000pt" height="191.000000pt" viewBox="0 0 813.000000 191.000000"
 preserveAspectRatio="xMidYMid meet">

<g transform="translate(0.000000,191.000000) scale(0.100000,-0.100000)"
fill="#000000" stroke="none">
<path d="M3922 1888 c-264 -33 -499 -144 -572 -270 l-30 -53 0 -210 0 -210 30
-53 c19 -32 54 -71 90 -99 33 -25 60 -48 60 -51 0 -2 -16 -22 -35 -44 -58 -69
-67 -112 -63 -320 3 -182 3 -183 33 -237 67 -121 251 -218 504 -265 130 -25
463 -22 592 4 136 28 256 73 342 130 130 84 167 151 167 303 l0 89 44 49 c74
82 76 90 76 323 0 153 -4 215 -14 240 -20 47 -71 102 -138 147 l-58 40 0 72
c0 137 -73 229 -244 312 -201 98 -508 138 -784 103z m423 -38 c325 -47 565
-195 565 -350 0 -59 -22 -104 -80 -159 -135 -130 -386 -203 -695 -203 -238 -1
-410 34 -569 114 -101 51 -189 136 -206 198 -45 168 164 330 505 391 114 20
367 25 480 9z m-957 -631 l-3 -104 -17 37 c-12 25 -18 62 -18 111 0 79 6 95
27 74 10 -10 13 -41 11 -118z m1522 42 c0 -90 -11 -141 -30 -141 -13 0 -13
185 0 211 21 39 30 18 30 -70z m122 29 c62 -55 98 -118 98 -170 0 -151 -241
-302 -559 -350 -153 -22 -464 -10 -546 23 -26 10 -6 13 140 18 381 14 559 44
712 119 166 82 210 199 112 305 -36 39 -50 81 -32 98 11 12 18 8 75 -43z
m-1502 -180 c0 -60 -4 -111 -8 -114 -5 -3 -28 8 -50 25 l-42 31 0 107 c0 59 3
110 6 114 4 3 26 -7 50 -24 l44 -30 0 -109z m1300 51 l0 -110 -37 -30 c-20
-16 -40 -28 -45 -25 -4 3 -8 54 -8 114 l0 109 33 25 c54 43 57 38 57 -83z
m-1192 13 c21 -14 22 -21 22 -125 0 -124 -6 -135 -62 -102 l-33 19 -3 104 c-1
57 0 110 3 118 5 15 35 9 73 -14z m1062 -94 l0 -120 -36 -15 c-20 -8 -41 -15
-46 -15 -5 0 -7 53 -6 122 l3 121 35 13 c19 7 38 13 43 13 4 1 7 -53 7 -119z
m300 39 c0 -65 -80 -138 -202 -184 -70 -26 -79 -13 -18 27 63 40 145 126 154
162 3 14 11 38 17 53 l11 28 19 -24 c11 -14 19 -39 19 -62z m-1217 12 c4 -4 6
-59 5 -122 l-3 -114 -33 2 c-57 2 -62 14 -62 133 0 58 3 110 7 114 9 8 74 -2
86 -13z m787 -101 c0 -120 0 -121 -26 -130 -14 -6 -34 -10 -45 -10 -19 0 -19
6 -17 122 3 121 3 122 28 129 61 17 60 20 60 -111z m-675 80 l26 -10 -3 -117
-3 -118 -34 3 c-56 4 -61 14 -61 122 0 54 3 105 6 114 7 18 31 20 69 6z m540
-114 l0 -120 -30 -8 c-53 -14 -55 -9 -55 121 0 130 1 131 60 128 l25 -2 0
-119z m-390 -21 l0 -120 -40 0 -40 0 -3 123 -3 123 43 -3 43 -3 0 -120z m133
3 c2 -108 1 -118 -17 -128 -12 -6 -32 -8 -46 -4 -25 6 -25 6 -25 123 0 65 3
121 7 125 4 4 23 6 43 4 l35 -3 3 -117z m130 0 l-3 -123 -42 -3 -43 -3 0 119
c0 65 3 122 7 125 3 4 24 7 45 7 l39 0 -3 -122z m820 -108 c-2 -78 -7 -103
-20 -117 -17 -16 -18 -12 -18 88 0 100 7 129 33 129 5 0 7 -45 5 -100z m-1530
28 c7 -7 12 -42 12 -87 l-1 -76 -19 24 c-15 18 -20 38 -20 87 0 64 6 74 28 52z
m1452 -118 l0 -109 -33 -25 c-19 -15 -39 -26 -45 -26 -9 0 -12 34 -12 114 l0
113 38 25 c20 14 40 24 45 21 4 -2 7 -53 7 -113z m-1520 19 c0 -139 34 -189
174 -255 157 -73 454 -120 701 -110 83 3 173 8 200 12 l50 6 -30 -17 c-88 -48
-450 -71 -640 -40 -318 51 -545 194 -545 343 0 55 52 152 82 152 4 0 8 -41 8
-91z m200 56 c11 -7 14 -227 4 -238 -4 -4 -24 7 -45 24 l-39 31 0 97 c0 54 3
100 6 103 6 6 55 -5 74 -17z m105 -49 l35 -15 0 -121 c0 -121 0 -121 -22 -115
-13 4 -33 13 -45 21 -22 14 -23 21 -23 129 0 72 4 115 10 115 6 0 26 -7 45
-14z m1083 -104 c3 -106 2 -112 -20 -126 -13 -7 -33 -17 -45 -21 -23 -6 -23
-6 -23 115 l0 121 33 14 c17 8 37 13 42 11 6 -1 11 -51 13 -114z m-944 58 c26
-9 26 -10 26 -131 l0 -121 -32 7 c-56 12 -58 18 -58 141 0 125 2 128 64 104z
m816 -104 c0 -126 -5 -137 -62 -139 l-33 -2 0 115 c0 112 1 115 25 127 14 7
35 13 48 13 22 0 22 -2 22 -114z m-676 78 c13 -5 16 -26 16 -123 0 -65 -2
-120 -5 -123 -3 -3 -22 -2 -43 1 l-37 6 -3 110 c-1 60 0 115 2 122 6 14 43 17
70 7z m541 -119 l0 -120 -40 -6 c-22 -4 -43 -5 -47 -2 -5 2 -8 55 -8 118 0
126 5 137 65 132 l30 -2 0 -120z m-395 -20 l0 -125 -33 0 c-52 0 -57 12 -57
137 l0 113 45 0 45 0 0 -125z m130 105 c6 -12 10 -63 8 -122 l-3 -103 -45 0
-45 0 -3 109 c-1 61 0 116 2 123 9 22 74 16 86 -7z m138 -94 c3 -124 -3 -139
-57 -134 l-36 3 -3 109 c-1 61 0 116 3 123 3 10 18 13 47 11 l43 -3 3 -109z
m-1060 -28 c8 -8 12 -49 12 -117 0 -100 -1 -104 -17 -88 -14 14 -19 39 -21
117 -4 97 1 113 26 88z m1532 -83 c0 -76 -12 -125 -30 -125 -14 0 -13 183 2
198 21 21 28 2 28 -73z m-1392 -139 c2 -79 -1 -116 -8 -116 -6 0 -27 12 -46
26 l-34 26 0 108 c0 58 3 109 6 113 3 3 23 -4 43 -17 l36 -23 3 -117z m1312
44 l0 -109 -33 -25 c-19 -15 -39 -26 -45 -26 -9 0 -12 34 -12 114 l0 113 38
25 c20 14 40 24 45 21 4 -2 7 -53 7 -113z m-1210 25 l30 -16 0 -119 c0 -66 -3
-120 -7 -120 -5 1 -24 9 -43 18 l-35 17 -3 104 c-4 140 -1 146 58 116z m1080
-100 c0 -108 -1 -115 -22 -129 -13 -8 -32 -16 -43 -18 -19 -3 -20 3 -23 115
l-3 118 33 14 c58 25 58 25 58 -100z m-130 -49 c0 -123 -2 -129 -58 -141 l-33
-7 3 124 3 123 35 11 c19 7 38 10 43 7 4 -2 7 -55 7 -117z m-804 97 c17 -16
19 -31 16 -130 -2 -64 -7 -113 -13 -113 -5 0 -25 7 -44 14 l-35 15 0 115 0
116 29 0 c16 0 37 -8 47 -17z m143 -27 c8 -9 11 -51 9 -122 l-3 -109 -33 -3
c-56 -6 -62 8 -62 128 0 58 3 110 7 113 12 12 70 7 82 -7z m529 -100 c3 -122
-3 -136 -54 -136 l-34 0 0 118 c0 65 3 122 7 126 4 4 23 6 43 4 l35 -3 3 -109z
m-395 84 c4 -3 6 -58 5 -121 l-3 -114 -27 -3 c-15 -2 -36 2 -48 8 -18 10 -20
20 -20 124 0 62 3 116 7 119 8 8 74 -2 86 -13z m265 -101 c3 -125 -3 -139 -59
-139 -33 0 -35 7 -31 142 l3 107 32 4 c18 2 37 3 42 2 6 -1 11 -50 13 -116z
m-133 -14 l0 -120 -45 0 -45 0 -3 109 c-1 61 0 116 3 123 3 10 18 13 47 11
l43 -3 0 -120z"/>
<path d="M3909 1779 c-336 -49 -525 -193 -453 -345 73 -154 459 -260 819 -224
435 43 659 226 494 405 -66 72 -237 140 -413 164 -89 13 -364 13 -447 0z m501
-49 c172 -34 268 -77 333 -149 46 -51 53 -80 32 -125 -94 -197 -682 -281
-1062 -152 -93 32 -127 50 -179 98 -98 91 -58 186 113 265 189 87 506 114 763
63z"/>
<path d="M4187 1686 c-11 -16 -29 -26 -60 -30 -119 -18 -142 -146 -31 -169 98
-21 99 -22 102 -49 4 -37 -30 -58 -93 -58 -60 0 -95 21 -95 56 0 18 -5 24 -21
24 -17 0 -20 -5 -17 -37 2 -30 10 -42 35 -58 23 -14 32 -28 33 -47 0 -36 27
-37 40 -3 7 19 17 25 39 25 68 0 121 43 121 96 0 46 -31 71 -96 80 -87 10
-109 56 -43 92 27 14 106 10 139 -8 12 -6 20 -21 20 -35 0 -16 6 -25 15 -25
43 0 21 81 -26 101 -26 10 -29 16 -24 40 8 37 -16 40 -38 5z"/>
<path d="M6985 1831 c-107 -27 -185 -131 -185 -246 0 -55 30 -135 65 -174 33
-37 34 -39 26 -92 -21 -130 37 -263 155 -349 46 -34 54 -46 54 -73 1 -43 33
-113 60 -127 12 -7 33 -10 46 -7 29 5 30 -6 5 -64 -10 -24 -22 -66 -26 -93
l-7 -49 60 5 c84 8 99 19 118 86 18 64 58 147 74 157 6 4 20 -1 31 -11 22 -20
85 -143 95 -186 5 -24 3 -28 -15 -28 -12 0 -37 7 -56 14 -30 13 -35 20 -35 48
0 35 -15 67 -26 56 -3 -4 -3 -32 0 -62 l7 -56 68 -20 c95 -28 102 -27 94 13
-8 41 -43 138 -56 155 -7 9 -1 15 23 23 39 14 60 58 60 127 0 38 5 53 24 71
22 21 26 22 52 8 60 -32 111 -102 133 -183 15 -56 44 -90 99 -118 47 -24 110
-81 100 -91 -3 -3 -21 2 -41 10 -44 18 -119 19 -169 1 -21 -7 -40 -11 -43 -8
-3 3 -5 32 -5 64 0 64 -26 207 -41 222 -19 20 -20 -5 -5 -73 9 -38 16 -109 16
-157 0 -82 -1 -88 -31 -121 -21 -25 -27 -39 -20 -46 7 -7 24 2 54 31 68 61
141 92 187 77 29 -9 25 -19 -19 -48 -28 -19 -49 -45 -71 -91 -29 -58 -32 -72
-28 -134 3 -57 8 -76 32 -107 16 -20 48 -46 72 -57 24 -10 44 -21 44 -23 0
-13 -95 -57 -142 -66 -108 -22 -213 34 -268 141 -23 45 -26 46 -51 24 -25 -23
-136 -38 -205 -28 l-59 9 -3 38 c-4 43 -19 49 -28 10 -19 -80 -89 -160 -159
-183 -46 -15 -135 -8 -190 15 l-40 17 24 17 c84 58 111 119 93 210 -17 82 -54
136 -118 172 -58 33 -61 43 -16 52 44 9 112 -11 169 -48 59 -39 63 -40 63 -22
0 6 -17 26 -37 43 -36 30 -37 32 -35 96 2 54 20 133 59 251 10 30 -22 19 -33
-12 -11 -28 -11 -28 -70 -20 -35 6 -96 28 -152 55 -75 37 -109 61 -171 123
-154 154 -170 267 -50 349 28 20 44 23 92 20 55 -4 61 -7 115 -61 32 -31 61
-57 65 -57 36 0 -50 105 -107 131 -91 41 -196 12 -243 -69 -62 -105 -12 -240
133 -363 72 -61 211 -133 291 -150 32 -7 61 -15 65 -18 4 -4 3 -24 -3 -46 -6
-22 -14 -71 -18 -109 l-6 -70 -80 0 c-97 -1 -141 -24 -183 -94 -38 -65 -39
-173 -2 -247 33 -68 108 -141 178 -173 123 -56 276 -24 344 73 32 45 34 46 73
39 61 -10 165 -7 215 6 42 11 45 11 60 -11 35 -55 83 -98 132 -119 71 -30 180
-25 253 12 98 51 187 174 201 281 5 35 0 67 -20 134 -46 150 -56 166 -134 212
-77 45 -91 61 -116 140 -21 66 -58 123 -102 156 l-33 26 44 60 c68 93 92 203
64 302 -10 36 -8 40 29 82 97 110 75 291 -44 361 -63 37 -116 47 -180 34 -78
-16 -138 -61 -170 -126 l-26 -54 -83 0 -83 0 -34 62 c-27 48 -44 67 -83 89
-55 30 -114 41 -160 30z m113 -37 c84 -35 155 -144 105 -160 -57 -19 -153 -70
-189 -100 l-43 -35 -15 23 c-33 52 -27 99 16 146 25 26 89 30 108 7 16 -19 40
-19 40 0 0 19 -51 45 -90 45 -72 0 -120 -57 -120 -143 0 -34 6 -53 24 -73 l23
-28 -19 -33 c-26 -42 -46 -33 -82 39 -46 92 -32 193 37 262 63 62 134 80 205
50z m650 0 c83 -34 132 -110 132 -202 0 -51 -5 -67 -32 -108 -18 -26 -38 -49
-44 -51 -7 -2 -22 10 -34 27 l-22 31 22 24 c13 14 24 41 27 67 6 62 -22 108
-80 132 -44 18 -48 18 -91 2 -31 -12 -52 -29 -67 -52 -19 -31 -25 -34 -53 -28
-17 3 -33 8 -35 10 -9 8 12 57 39 88 61 69 158 94 238 60z m-12 -128 c26 -26
34 -43 34 -69 0 -43 -32 -87 -53 -72 -7 6 -36 24 -63 42 -98 64 -94 55 -52 97
48 48 87 49 134 2z m-280 -47 c126 -23 249 -107 309 -212 33 -58 45 -162 25
-230 -12 -45 -77 -140 -95 -141 -5 -1 -12 19 -15 44 -3 25 -14 59 -24 76 -39
65 -168 124 -271 124 -104 0 -235 -60 -276 -127 -23 -36 -30 -98 -16 -145 11
-42 -7 -35 -70 24 -98 93 -130 194 -98 304 59 204 290 327 531 283z m70 -398
c133 -58 167 -178 77 -266 -39 -38 -132 -78 -172 -73 -23 3 -26 8 -29 50 -3
46 -2 48 37 67 137 71 55 212 -99 171 -94 -25 -94 -122 1 -170 37 -19 39 -23
39 -66 0 -52 -10 -59 -74 -50 -70 11 -147 63 -175 119 -30 61 -23 104 27 159
58 65 128 89 242 84 50 -2 92 -10 126 -25z m-76 -86 c62 -32 16 -118 -62 -118
-35 0 -88 47 -88 80 0 45 91 68 150 38z m-231 -251 c36 -14 70 -30 74 -34 10
-9 -78 -60 -104 -60 -24 0 -59 55 -59 93 0 33 7 34 89 1z m373 -25 c-3 -36
-26 -79 -43 -79 -6 0 -30 14 -55 31 -43 30 -50 49 -16 49 9 0 35 9 57 19 51
25 61 21 57 -20z m-196 -23 c3 -7 -4 -28 -15 -47 -11 -19 -29 -63 -41 -99 -12
-36 -29 -73 -37 -82 -17 -19 -78 -25 -87 -9 -10 15 23 108 57 157 29 44 87 94
109 94 5 0 11 -6 14 -14z m659 -364 c27 -39 30 -52 30 -115 0 -76 -20 -131
-69 -191 -21 -25 -28 -28 -60 -22 -49 9 -101 61 -116 115 -22 81 26 194 103
242 47 29 76 21 112 -29z m-1266 -12 c97 -49 149 -177 106 -259 -19 -39 -72
-81 -99 -81 -27 0 -87 60 -115 117 -35 70 -26 171 21 231 15 17 43 15 87 -8z"/>
<path d="M7240 1410 c0 -11 7 -20 15 -20 8 0 15 9 15 20 0 11 -7 20 -15 20 -8
0 -15 -9 -15 -20z"/>
<path d="M7470 1410 c0 -11 7 -20 15 -20 8 0 15 9 15 20 0 11 -7 20 -15 20 -8
0 -15 -9 -15 -20z"/>
<path d="M609 1756 c-76 -16 -192 -49 -267 -77 -38 -14 -79 -19 -150 -19 -108
0 -154 -18 -172 -66 -6 -15 -10 -273 -10 -663 0 -636 0 -638 21 -665 12 -15
32 -32 46 -37 13 -5 239 -18 501 -30 501 -22 557 -22 1205 6 348 15 386 21
401 60 3 9 6 315 6 680 0 604 -1 665 -17 680 -27 27 -60 35 -152 35 -70 0
-104 6 -175 30 -317 107 -549 106 -705 -3 l-34 -23 -49 33 c-27 18 -73 40
-101 49 -69 22 -261 28 -348 10z m335 -66 c29 -12 72 -34 95 -50 l41 -30 0
-569 c0 -319 -4 -572 -9 -575 -5 -3 -20 3 -34 14 -14 12 -52 33 -84 48 -54 25
-67 27 -193 27 -145 0 -213 -12 -397 -67 -56 -17 -109 -28 -117 -25 -14 6 -16
65 -16 555 0 454 2 552 14 561 23 19 306 108 396 125 106 19 229 14 304 -14z
m727 -9 c63 -16 157 -45 209 -64 l95 -34 3 -562 c2 -481 0 -561 -12 -561 -8 0
-68 15 -133 34 -308 88 -504 88 -638 -3 -25 -17 -48 -31 -51 -31 -2 0 -4 258
-4 573 l0 574 23 19 c45 40 117 72 197 88 56 11 202 -5 311 -33z m-1491 -705
c0 -491 3 -615 13 -619 7 -3 112 0 232 5 270 12 527 5 614 -17 58 -14 70 -14
135 0 98 22 348 29 616 17 202 -9 226 -9 238 6 9 12 12 153 12 624 0 479 3
608 13 609 32 3 64 -4 79 -18 17 -15 18 -59 18 -643 0 -621 0 -627 -21 -646
-22 -20 -17 -20 -704 -47 -303 -12 -371 -12 -828 7 l-499 21 -19 24 c-18 22
-19 49 -19 640 l0 618 23 20 c26 25 56 33 80 21 16 -8 17 -48 17 -622z m759
-508 c80 -41 93 -64 30 -52 -24 5 -168 7 -319 6 -237 -2 -272 -1 -255 11 48
34 298 78 405 72 60 -3 87 -10 139 -37z m725 11 c56 -11 119 -29 141 -39 40
-19 40 -19 -245 -17 -157 1 -300 -2 -317 -7 -45 -11 -43 7 5 38 89 60 212 67
416 25z"/>
</g>
</svg>
