<svg xmlns="http://www.w3.org/2000/svg" xmlns:xlink="http://www.w3.org/1999/xlink" width="468" zoomAndPan="magnify" viewBox="0 0 351 67.499998" height="90" preserveAspectRatio="xMidYMid meet" version="1.0"><defs><clipPath id="2f034d35f2"><path d="M 1.289062 0 L 349.707031 0 L 349.707031 67.003906 L 1.289062 67.003906 Z M 1.289062 0 " clip-rule="nonzero"/></clipPath><clipPath id="84b3dac677"><path d="M 77.457031 13.160156 L 130.316406 13.160156 L 130.316406 51.871094 L 77.457031 51.871094 Z M 77.457031 13.160156 " clip-rule="nonzero"/></clipPath><clipPath id="f7c0f47af7"><path d="M 156.8125 10.101562 L 201.480469 10.101562 L 201.480469 54.769531 L 156.8125 54.769531 Z M 156.8125 10.101562 " clip-rule="nonzero"/></clipPath></defs><g clip-path="url(#2f034d35f2)"><path fill="#ffffff" d="M 1.289062 0 L 349.710938 0 L 349.710938 67.003906 L 1.289062 67.003906 Z M 1.289062 0 " fill-opacity="1" fill-rule="nonzero"/><path fill="#ffffff" d="M 1.289062 0 L 349.710938 0 L 349.710938 67.003906 L 1.289062 67.003906 Z M 1.289062 0 " fill-opacity="1" fill-rule="nonzero"/></g><g clip-path="url(#84b3dac677)"><path fill="#545454" d="M 128.953125 47.824219 C 128.953125 48.582031 128.328125 49.203125 127.523438 49.203125 L 104.0625 50.171875 L 80.570312 49.203125 C 79.800781 49.203125 79.171875 48.582031 79.171875 47.824219 L 79.171875 18.988281 C 79.171875 18.226562 79.800781 17.605469 80.570312 17.605469 L 81.59375 17.605469 L 81.59375 46.820312 C 81.65625 47.421875 82.132812 47.640625 82.496094 47.675781 C 82.574219 47.683594 90.347656 47.28125 96.382812 47.257812 C 101.3125 47.257812 103.949219 48.289062 104.0625 48.289062 C 104.175781 48.289062 106.8125 47.257812 111.898438 47.257812 C 117.777344 47.28125 125.550781 47.679688 125.628906 47.675781 C 126.199219 47.667969 126.511719 47.25 126.53125 46.820312 L 126.53125 17.605469 L 127.558594 17.605469 C 128.328125 17.605469 128.957031 18.226562 128.957031 18.988281 Z M 101.785156 45.976562 C 100.460938 45.742188 98.625 45.539062 96.21875 45.539062 C 92.933594 45.554688 89.09375 45.679688 86.285156 45.792969 C 89.046875 44.949219 92.960938 43.972656 96.261719 43.957031 C 98.816406 43.957031 100.625 44.996094 101.785156 45.976562 Z M 83.3125 18.144531 C 85.195312 17.386719 91.757812 14.878906 96.210938 14.878906 C 100.550781 14.929688 102.636719 16.828125 103.203125 17.453125 L 103.203125 44.929688 C 101.824219 43.671875 99.523438 42.238281 96.21875 42.238281 C 91.484375 42.261719 85.746094 44.09375 83.3125 44.953125 Z M 121.847656 45.792969 C 119.019531 45.679688 115.125 45.550781 111.742188 45.539062 C 109.433594 45.539062 107.652344 45.738281 106.355469 45.96875 C 107.519531 44.988281 109.332031 43.957031 111.902344 43.957031 C 115.183594 43.96875 119.089844 44.949219 121.847656 45.792969 Z M 104.921875 17.453125 C 105.496094 16.824219 107.597656 14.929688 112.03125 14.878906 C 116.382812 14.878906 122.933594 17.386719 124.8125 18.144531 L 124.8125 44.953125 C 122.378906 44.09375 116.632812 42.261719 111.863281 42.238281 C 108.589844 42.238281 106.300781 43.671875 104.921875 44.925781 Z M 127.558594 15.890625 L 123.75 15.890625 C 120.851562 14.816406 115.757812 13.164062 111.898438 13.164062 C 107.609375 13.210938 105.171875 14.882812 104.078125 15.890625 L 104.046875 15.890625 C 102.941406 14.882812 100.476562 13.210938 96.097656 13.164062 C 92.328125 13.164062 87.257812 14.816406 84.371094 15.890625 L 80.570312 15.890625 C 78.851562 15.890625 77.457031 17.28125 77.457031 18.988281 L 77.457031 47.824219 C 77.457031 49.53125 78.851562 50.917969 80.53125 50.917969 C 80.535156 50.917969 104.027344 51.890625 104.027344 51.890625 C 104.039062 51.890625 104.050781 51.890625 104.0625 51.890625 C 104.074219 51.890625 104.085938 51.890625 104.097656 51.890625 L 127.558594 50.917969 C 129.273438 50.917969 130.671875 49.53125 130.671875 47.824219 L 130.671875 18.988281 C 130.671875 17.28125 129.273438 15.890625 127.558594 15.890625 " fill-opacity="1" fill-rule="nonzero"/></g><g clip-path="url(#f7c0f47af7)"><path fill="#545454" d="M 176.644531 10.101562 Z M 173.863281 23.605469 C 174.035156 23.675781 174.222656 23.730469 174.425781 23.769531 L 174.179688 24.378906 C 174.050781 24.707031 174.207031 25.078125 174.535156 25.207031 C 174.863281 25.339844 175.234375 25.179688 175.367188 24.851562 L 175.734375 23.9375 L 175.863281 23.953125 C 176.582031 24.046875 177.320312 23.90625 177.933594 23.605469 C 178.574219 23.292969 179.097656 22.796875 179.339844 22.191406 C 179.40625 22.03125 179.449219 21.863281 179.46875 21.699219 L 179.46875 21.695312 C 179.527344 21.234375 179.414062 20.792969 179.15625 20.421875 C 178.917969 20.074219 178.558594 19.789062 178.105469 19.609375 C 177.875 19.515625 177.621094 19.449219 177.339844 19.414062 L 176.105469 19.257812 C 175.941406 19.238281 175.792969 19.199219 175.65625 19.144531 C 175.441406 19.058594 175.277344 18.9375 175.179688 18.792969 C 175.101562 18.675781 175.066406 18.539062 175.082031 18.402344 L 175.085938 18.398438 C 175.089844 18.339844 175.109375 18.28125 175.132812 18.222656 C 175.25 17.925781 175.542969 17.664062 175.914062 17.484375 C 176.320312 17.289062 176.800781 17.195312 177.261719 17.25 L 177.84375 17.324219 C 177.867188 17.328125 177.890625 17.332031 177.914062 17.335938 L 178.5 17.410156 C 178.660156 17.429688 178.8125 17.46875 178.945312 17.523438 C 179.160156 17.609375 179.324219 17.730469 179.421875 17.875 C 179.5 17.988281 179.539062 18.125 179.519531 18.265625 C 179.511719 18.320312 179.496094 18.378906 179.472656 18.445312 C 179.339844 18.773438 179.5 19.144531 179.828125 19.277344 C 180.152344 19.40625 180.527344 19.246094 180.65625 18.921875 C 180.722656 18.757812 180.765625 18.589844 180.785156 18.425781 L 180.785156 18.421875 C 180.84375 17.960938 180.730469 17.523438 180.472656 17.148438 C 180.234375 16.804688 179.875 16.519531 179.421875 16.335938 C 179.246094 16.265625 179.058594 16.210938 178.859375 16.171875 L 179.105469 15.5625 C 179.234375 15.234375 179.074219 14.863281 178.75 14.730469 C 178.421875 14.601562 178.050781 14.757812 177.917969 15.085938 L 177.546875 16.003906 L 177.417969 15.984375 C 176.699219 15.894531 175.960938 16.035156 175.351562 16.332031 C 174.707031 16.648438 174.183594 17.144531 173.941406 17.746094 C 173.875 17.914062 173.832031 18.082031 173.8125 18.246094 C 173.753906 18.707031 173.871094 19.144531 174.125 19.519531 C 174.363281 19.867188 174.726562 20.152344 175.179688 20.332031 C 175.40625 20.425781 175.664062 20.492188 175.941406 20.527344 L 177.175781 20.679688 C 177.339844 20.703125 177.492188 20.742188 177.625 20.792969 C 177.839844 20.882812 178 21.003906 178.101562 21.148438 C 178.179688 21.261719 178.21875 21.398438 178.199219 21.539062 C 178.191406 21.59375 178.175781 21.652344 178.148438 21.71875 C 178.03125 22.015625 177.738281 22.273438 177.367188 22.457031 C 176.960938 22.652344 176.480469 22.746094 176.019531 22.6875 L 175.4375 22.617188 C 175.414062 22.613281 175.390625 22.609375 175.363281 22.605469 L 174.78125 22.53125 C 174.621094 22.511719 174.46875 22.472656 174.335938 22.417969 C 174.121094 22.332031 173.957031 22.210938 173.859375 22.066406 C 173.78125 21.953125 173.742188 21.816406 173.761719 21.675781 C 173.765625 21.621094 173.785156 21.5625 173.808594 21.496094 C 173.941406 21.167969 173.78125 20.796875 173.453125 20.664062 C 173.128906 20.535156 172.753906 20.695312 172.625 21.019531 C 172.558594 21.183594 172.515625 21.351562 172.496094 21.515625 L 172.496094 21.519531 C 172.4375 21.980469 172.550781 22.417969 172.808594 22.792969 C 173.050781 23.136719 173.410156 23.421875 173.863281 23.605469 Z M 176.644531 12.671875 Z M 159.839844 19.96875 C 159.839844 17.847656 161.800781 15.976562 164.972656 14.671875 C 167.972656 13.433594 172.101562 12.671875 176.644531 12.671875 C 181.1875 12.671875 185.316406 13.433594 188.316406 14.671875 C 191.484375 15.976562 193.445312 17.847656 193.445312 19.96875 C 193.445312 22.09375 191.484375 23.960938 188.316406 25.269531 C 185.316406 26.503906 181.1875 27.269531 176.644531 27.269531 C 172.101562 27.269531 167.972656 26.503906 164.972656 25.269531 C 161.800781 23.960938 159.839844 22.09375 159.839844 19.96875 Z M 161.121094 19.96875 C 161.121094 21.523438 162.777344 22.984375 165.457031 24.085938 C 168.308594 25.261719 172.261719 25.988281 176.644531 25.988281 C 181.027344 25.988281 184.980469 25.261719 187.828125 24.085938 C 190.507812 22.984375 192.164062 21.523438 192.164062 19.96875 C 192.164062 18.414062 190.507812 16.957031 187.828125 15.851562 C 184.980469 14.679688 181.027344 13.953125 176.644531 13.953125 C 172.261719 13.953125 168.308594 14.679688 165.457031 15.851562 C 162.777344 16.957031 161.121094 18.414062 161.121094 19.96875 Z M 201.667969 29.0625 L 201.667969 35.992188 C 201.667969 37.605469 200.914062 39.117188 199.574219 40.449219 C 199.546875 40.488281 199.511719 40.519531 199.476562 40.550781 C 199.203125 40.8125 198.90625 41.070312 198.585938 41.320312 L 198.589844 45.085938 C 198.589844 47.902344 196.300781 50.410156 192.601562 52.1875 C 189.046875 53.898438 184.148438 54.957031 178.757812 54.957031 C 173.363281 54.957031 168.464844 53.898438 164.910156 52.1875 C 161.210938 50.410156 158.925781 47.902344 158.925781 45.085938 L 158.925781 38.15625 C 158.925781 37.136719 159.226562 36.15625 159.789062 35.234375 C 160.203125 34.546875 160.765625 33.894531 161.453125 33.285156 C 160.503906 32.726562 159.679688 32.113281 159 31.457031 C 158.964844 31.425781 158.929688 31.394531 158.902344 31.359375 C 157.5625 30.027344 156.8125 28.515625 156.8125 26.902344 L 156.8125 19.96875 C 156.8125 17.15625 159.101562 14.648438 162.796875 12.867188 C 166.355469 11.160156 171.25 10.101562 176.644531 10.101562 C 182.035156 10.101562 186.933594 11.160156 190.488281 12.867188 C 194.1875 14.648438 196.476562 17.15625 196.476562 19.96875 L 196.476562 22.367188 C 198.03125 23.207031 199.292969 24.1875 200.179688 25.265625 C 201.140625 26.429688 201.667969 27.710938 201.667969 29.0625 Z M 196.476562 23.832031 L 196.476562 25.414062 C 197.109375 25.902344 197.621094 26.429688 197.984375 26.992188 C 198.410156 27.644531 198.636719 28.339844 198.636719 29.0625 C 198.636719 31.144531 196.75 32.984375 193.691406 34.285156 C 190.800781 35.511719 186.816406 36.292969 182.398438 36.355469 C 182.371094 36.359375 182.339844 36.363281 182.3125 36.367188 C 182.257812 36.375 182.203125 36.382812 182.148438 36.390625 C 181.925781 36.421875 181.699219 36.453125 181.472656 36.480469 C 181.453125 36.480469 181.4375 36.484375 181.421875 36.488281 C 181.417969 36.488281 181.417969 36.488281 181.417969 36.488281 C 181.414062 36.488281 181.410156 36.488281 181.40625 36.488281 C 181.378906 36.492188 181.347656 36.496094 181.316406 36.496094 C 181.117188 36.519531 180.914062 36.542969 180.710938 36.566406 C 180.675781 36.566406 180.644531 36.570312 180.609375 36.574219 C 180.375 36.597656 180.144531 36.617188 179.910156 36.636719 C 179.886719 36.640625 179.863281 36.640625 179.84375 36.644531 C 179.808594 36.644531 179.769531 36.648438 179.738281 36.652344 C 179.660156 36.65625 179.582031 36.664062 179.503906 36.667969 C 179.46875 36.671875 179.433594 36.671875 179.398438 36.675781 C 178.496094 36.738281 177.578125 36.769531 176.644531 36.769531 C 175.714844 36.769531 174.804688 36.738281 173.910156 36.675781 C 173.863281 36.671875 173.816406 36.671875 173.773438 36.667969 C 173.703125 36.664062 173.628906 36.65625 173.558594 36.652344 C 173.523438 36.648438 173.484375 36.644531 173.445312 36.640625 L 173.273438 36.628906 C 173.230469 36.625 173.183594 36.621094 173.144531 36.617188 L 173.058594 36.609375 C 173.078125 36.617188 173.101562 36.621094 173.121094 36.625 C 173.3125 36.671875 173.507812 36.722656 173.703125 36.765625 C 173.835938 36.796875 173.972656 36.824219 174.105469 36.855469 C 174.125 36.859375 174.140625 36.863281 174.160156 36.867188 C 175.128906 37.074219 176.140625 37.242188 177.191406 37.371094 C 177.195312 37.371094 177.203125 37.371094 177.207031 37.375 C 178.6875 37.550781 180.238281 37.648438 181.835938 37.648438 C 183.425781 37.648438 184.96875 37.554688 186.445312 37.375 C 186.460938 37.375 186.472656 37.371094 186.488281 37.371094 C 187.105469 37.296875 187.714844 37.207031 188.308594 37.101562 C 188.714844 37.03125 189.113281 36.953125 189.503906 36.871094 C 189.527344 36.863281 189.550781 36.859375 189.578125 36.855469 C 189.578125 36.855469 189.582031 36.851562 189.582031 36.851562 C 190 36.761719 190.40625 36.664062 190.804688 36.5625 C 191.410156 36.40625 191.992188 36.230469 192.550781 36.042969 C 192.585938 36.03125 192.617188 36.019531 192.65625 36.011719 C 193.539062 35.710938 194.367188 35.375 195.128906 35.011719 C 195.289062 34.933594 195.445312 34.855469 195.601562 34.773438 C 195.632812 34.753906 195.667969 34.738281 195.703125 34.722656 C 196.851562 34.117188 197.824219 33.441406 198.578125 32.714844 C 198.609375 32.675781 198.644531 32.640625 198.679688 32.613281 C 199.773438 31.523438 200.382812 30.320312 200.382812 29.0625 C 200.382812 28.015625 199.960938 27.007812 199.195312 26.074219 C 198.527344 25.265625 197.605469 24.511719 196.476562 23.832031 Z M 194.59375 24.210938 C 194.574219 24.238281 194.550781 24.257812 194.527344 24.28125 L 194.527344 29.152344 C 194.566406 29.089844 194.601562 29.027344 194.636719 28.964844 C 194.660156 28.921875 194.679688 28.882812 194.703125 28.839844 C 194.714844 28.8125 194.730469 28.789062 194.742188 28.761719 C 194.769531 28.707031 194.792969 28.652344 194.816406 28.597656 C 194.824219 28.585938 194.828125 28.574219 194.832031 28.5625 C 194.859375 28.503906 194.882812 28.445312 194.90625 28.386719 C 194.910156 28.378906 194.914062 28.367188 194.917969 28.359375 C 194.941406 28.300781 194.960938 28.242188 194.980469 28.179688 C 194.984375 28.171875 194.988281 28.160156 194.992188 28.148438 C 195.011719 28.089844 195.027344 28.03125 195.042969 27.976562 C 195.046875 27.960938 195.050781 27.945312 195.054688 27.929688 C 195.070312 27.875 195.082031 27.820312 195.097656 27.769531 C 195.101562 27.746094 195.105469 27.726562 195.109375 27.707031 C 195.117188 27.65625 195.128906 27.605469 195.136719 27.558594 C 195.140625 27.527344 195.144531 27.5 195.148438 27.472656 C 195.15625 27.429688 195.164062 27.386719 195.167969 27.34375 C 195.171875 27.304688 195.175781 27.265625 195.179688 27.230469 C 195.179688 27.195312 195.183594 27.160156 195.1875 27.125 C 195.191406 27.058594 195.191406 26.992188 195.191406 26.929688 C 195.191406 26.917969 195.195312 26.910156 195.195312 26.902344 L 195.195312 23.507812 C 195.179688 23.527344 195.164062 23.542969 195.152344 23.5625 C 195.105469 23.621094 195.0625 23.675781 195.015625 23.734375 C 194.992188 23.761719 194.972656 23.785156 194.949219 23.8125 C 194.90625 23.867188 194.859375 23.921875 194.808594 23.976562 C 194.785156 24.003906 194.761719 24.03125 194.738281 24.058594 C 194.691406 24.109375 194.644531 24.160156 194.59375 24.210938 Z M 180.570312 35.292969 C 180.617188 35.289062 180.660156 35.28125 180.707031 35.277344 L 180.707031 29.632812 C 180.097656 29.695312 179.480469 29.746094 178.851562 29.78125 L 178.851562 35.429688 C 179.058594 35.417969 179.269531 35.402344 179.476562 35.386719 C 179.507812 35.386719 179.542969 35.382812 179.574219 35.378906 C 179.65625 35.375 179.734375 35.367188 179.816406 35.363281 C 180.042969 35.34375 180.265625 35.324219 180.488281 35.300781 C 180.515625 35.300781 180.542969 35.296875 180.570312 35.292969 Z M 173.789062 35.386719 C 174 35.402344 174.21875 35.417969 174.433594 35.429688 L 174.433594 29.78125 C 173.808594 29.746094 173.1875 29.699219 172.582031 29.636719 L 172.582031 35.28125 C 172.617188 35.28125 172.65625 35.289062 172.691406 35.292969 C 172.730469 35.296875 172.769531 35.300781 172.804688 35.304688 C 173.019531 35.324219 173.238281 35.34375 173.453125 35.363281 C 173.554688 35.371094 173.652344 35.378906 173.75 35.386719 C 173.761719 35.386719 173.773438 35.386719 173.789062 35.386719 Z M 190.3125 38 L 190.3125 43.617188 C 190.953125 43.464844 191.574219 43.289062 192.167969 43.101562 L 192.167969 37.507812 C 191.570312 37.6875 190.953125 37.851562 190.3125 38 Z M 193.449219 37.089844 L 193.449219 42.660156 C 194.039062 42.4375 194.597656 42.199219 195.128906 41.945312 C 195.1875 41.917969 195.242188 41.886719 195.300781 41.859375 L 195.300781 36.339844 C 194.71875 36.609375 194.097656 36.859375 193.449219 37.089844 Z M 189.03125 38.269531 C 188.425781 38.386719 187.808594 38.488281 187.175781 38.574219 L 187.175781 44.214844 C 187.808594 44.125 188.429688 44.019531 189.03125 43.898438 Z M 185.894531 44.371094 L 185.894531 38.726562 C 185.289062 38.789062 184.667969 38.839844 184.042969 38.871094 L 184.042969 44.519531 C 184.671875 44.484375 185.289062 44.4375 185.894531 44.371094 Z M 181.832031 38.933594 C 181.523438 38.933594 181.214844 38.925781 180.90625 38.921875 L 180.90625 44.566406 C 181.152344 44.574219 181.402344 44.578125 181.648438 44.582031 C 181.710938 44.582031 181.773438 44.582031 181.832031 44.582031 C 182.144531 44.582031 182.453125 44.578125 182.761719 44.570312 L 182.761719 38.921875 C 182.453125 38.929688 182.144531 38.933594 181.832031 38.933594 Z M 191.546875 26.519531 C 191.496094 26.546875 191.445312 26.578125 191.390625 26.605469 L 191.390625 32.0625 C 191.644531 31.90625 191.890625 31.75 192.121094 31.585938 C 192.535156 31.296875 192.910156 30.992188 193.246094 30.679688 L 193.246094 25.410156 C 193.242188 25.414062 193.238281 25.417969 193.234375 25.421875 C 193.210938 25.4375 193.1875 25.457031 193.164062 25.472656 C 193.09375 25.527344 193.019531 25.578125 192.945312 25.632812 C 192.914062 25.65625 192.878906 25.679688 192.84375 25.703125 C 192.78125 25.75 192.714844 25.796875 192.648438 25.839844 C 192.609375 25.867188 192.570312 25.890625 192.527344 25.917969 C 192.464844 25.960938 192.402344 26 192.339844 26.042969 C 192.296875 26.070312 192.253906 26.097656 192.210938 26.125 C 192.148438 26.164062 192.082031 26.203125 192.019531 26.242188 C 191.972656 26.269531 191.929688 26.296875 191.882812 26.324219 C 191.816406 26.363281 191.75 26.402344 191.683594 26.441406 C 191.640625 26.46875 191.59375 26.492188 191.546875 26.519531 Z M 190.113281 27.25 C 189.527344 27.515625 188.90625 27.765625 188.257812 27.996094 L 188.257812 33.566406 C 188.511719 33.472656 188.761719 33.371094 189.011719 33.265625 C 189.390625 33.105469 189.757812 32.9375 190.109375 32.765625 L 190.109375 27.25 Z M 186.976562 28.414062 C 186.378906 28.59375 185.757812 28.757812 185.121094 28.90625 L 185.121094 34.523438 C 185.390625 34.460938 185.65625 34.390625 185.921875 34.320312 L 185.960938 34.3125 C 185.972656 34.308594 185.988281 34.304688 186 34.300781 C 186.21875 34.238281 186.4375 34.175781 186.648438 34.113281 C 186.675781 34.105469 186.703125 34.097656 186.726562 34.089844 C 186.8125 34.0625 186.890625 34.035156 186.976562 34.007812 Z M 183.839844 29.179688 C 183.238281 29.292969 182.617188 29.394531 181.984375 29.480469 L 181.984375 35.121094 C 182.046875 35.113281 182.105469 35.105469 182.164062 35.097656 C 182.222656 35.089844 182.277344 35.078125 182.332031 35.070312 C 182.414062 35.058594 182.5 35.046875 182.582031 35.03125 C 182.640625 35.023438 182.699219 35.015625 182.753906 35.003906 C 182.800781 34.996094 182.84375 34.988281 182.890625 34.980469 C 183.210938 34.925781 183.527344 34.867188 183.839844 34.804688 Z M 177.570312 35.476562 L 177.570312 29.828125 C 177.261719 29.835938 176.953125 29.839844 176.644531 29.839844 C 176.332031 29.839844 176.023438 29.835938 175.714844 29.828125 L 175.714844 35.476562 C 176.023438 35.484375 176.332031 35.488281 176.644531 35.488281 C 176.953125 35.488281 177.261719 35.484375 177.570312 35.476562 Z M 174.636719 43.871094 C 175.246094 43.992188 175.863281 44.097656 176.488281 44.1875 L 176.488281 38.574219 C 175.859375 38.488281 175.238281 38.386719 174.636719 38.273438 Z M 177.769531 38.726562 L 177.769531 44.351562 C 178.382812 44.417969 179.003906 44.46875 179.625 44.507812 L 179.625 38.871094 C 178.996094 38.839844 178.378906 38.789062 177.769531 38.726562 Z M 163.933594 38.21875 L 163.949219 38.238281 L 163.949219 34.515625 C 163.914062 34.5 163.878906 34.488281 163.84375 34.472656 C 163.757812 34.4375 163.675781 34.398438 163.589844 34.363281 C 163.535156 34.339844 163.484375 34.316406 163.429688 34.292969 C 163.382812 34.273438 163.332031 34.25 163.28125 34.230469 L 163.28125 35.992188 C 163.28125 36.132812 163.289062 36.273438 163.304688 36.414062 C 163.3125 36.449219 163.316406 36.480469 163.320312 36.515625 C 163.324219 36.542969 163.328125 36.570312 163.332031 36.59375 C 163.335938 36.628906 163.34375 36.660156 163.347656 36.695312 C 163.355469 36.742188 163.363281 36.792969 163.375 36.839844 C 163.402344 36.945312 163.429688 37.042969 163.457031 37.136719 C 163.476562 37.203125 163.496094 37.265625 163.519531 37.332031 C 163.558594 37.449219 163.605469 37.566406 163.65625 37.679688 C 163.679688 37.726562 163.699219 37.769531 163.722656 37.816406 C 163.722656 37.816406 163.722656 37.820312 163.722656 37.820312 C 163.730469 37.839844 163.742188 37.859375 163.75 37.875 C 163.796875 37.972656 163.851562 38.066406 163.910156 38.167969 C 163.917969 38.1875 163.925781 38.203125 163.933594 38.21875 Z M 168.164062 28.90625 C 167.527344 28.761719 166.90625 28.59375 166.308594 28.414062 L 166.308594 34.007812 L 166.453125 34.054688 L 167.0625 34.234375 C 167.066406 34.238281 167.070312 34.238281 167.074219 34.242188 C 167.109375 34.25 167.140625 34.257812 167.171875 34.269531 C 167.285156 34.300781 167.398438 34.328125 167.507812 34.359375 C 167.523438 34.363281 167.535156 34.367188 167.546875 34.371094 C 167.613281 34.386719 167.675781 34.402344 167.742188 34.417969 C 167.832031 34.441406 167.925781 34.464844 168.019531 34.488281 C 168.066406 34.5 168.117188 34.511719 168.164062 34.523438 Z M 165.808594 40.269531 C 165.878906 40.324219 165.949219 40.382812 166.019531 40.4375 C 166.046875 40.453125 166.070312 40.472656 166.09375 40.492188 L 166.410156 40.71875 C 166.527344 40.800781 166.65625 40.886719 166.792969 40.972656 L 167.066406 41.144531 C 167.074219 41.148438 167.078125 41.152344 167.082031 41.15625 L 167.082031 35.699219 C 167.039062 35.671875 166.996094 35.648438 166.949219 35.625 C 166.890625 35.589844 166.832031 35.558594 166.769531 35.523438 C 166.726562 35.496094 166.679688 35.46875 166.636719 35.445312 L 166.078125 35.277344 C 165.886719 35.21875 165.695312 35.152344 165.5 35.089844 C 165.472656 35.082031 165.445312 35.074219 165.417969 35.0625 C 165.394531 35.054688 165.367188 35.042969 165.339844 35.035156 C 165.316406 35.027344 165.292969 35.019531 165.269531 35.011719 C 165.253906 35.007812 165.242188 35 165.230469 34.996094 L 165.230469 39.757812 C 165.394531 39.921875 165.582031 40.085938 165.808594 40.269531 Z M 170.21875 42.636719 L 170.21875 37.089844 C 170.195312 37.078125 170.167969 37.070312 170.140625 37.058594 C 170.070312 37.035156 170 37.007812 169.929688 36.984375 C 169.855469 36.957031 169.78125 36.929688 169.707031 36.898438 C 169.636719 36.875 169.570312 36.847656 169.5 36.820312 C 169.425781 36.792969 169.355469 36.761719 169.28125 36.734375 C 169.214844 36.707031 169.148438 36.679688 169.082031 36.652344 C 169.011719 36.621094 168.941406 36.59375 168.871094 36.5625 C 168.804688 36.535156 168.738281 36.503906 168.671875 36.476562 C 168.601562 36.445312 168.53125 36.417969 168.464844 36.386719 C 168.429688 36.371094 168.398438 36.355469 168.363281 36.339844 L 168.363281 41.84375 C 168.953125 42.128906 169.574219 42.394531 170.21875 42.636719 Z M 171.300781 35.121094 L 171.300781 29.480469 C 170.667969 29.394531 170.050781 29.292969 169.445312 29.179688 L 169.445312 34.804688 C 169.519531 34.820312 169.59375 34.835938 169.667969 34.851562 C 169.679688 34.855469 169.6875 34.855469 169.695312 34.855469 C 169.921875 34.902344 170.152344 34.941406 170.382812 34.980469 C 170.4375 34.988281 170.492188 35 170.546875 35.007812 C 170.589844 35.015625 170.636719 35.023438 170.683594 35.03125 C 170.777344 35.042969 170.875 35.058594 170.96875 35.074219 C 171.011719 35.082031 171.058594 35.089844 171.101562 35.09375 C 171.167969 35.105469 171.234375 35.113281 171.300781 35.121094 Z M 163.171875 27.246094 L 163.171875 32.765625 C 163.191406 32.773438 163.210938 32.785156 163.226562 32.792969 C 163.257812 32.808594 163.285156 32.820312 163.3125 32.835938 C 163.636719 32.988281 163.976562 33.140625 164.332031 33.292969 C 164.5625 33.386719 164.792969 33.476562 165.027344 33.566406 L 165.027344 27.996094 C 164.378906 27.765625 163.757812 27.515625 163.171875 27.246094 Z M 172.925781 37.898438 C 172.859375 37.882812 172.792969 37.863281 172.726562 37.847656 C 172.628906 37.820312 172.535156 37.796875 172.441406 37.773438 C 172.367188 37.753906 172.292969 37.734375 172.21875 37.714844 C 172.132812 37.691406 172.046875 37.667969 171.964844 37.644531 C 171.886719 37.621094 171.8125 37.601562 171.738281 37.578125 C 171.65625 37.554688 171.578125 37.53125 171.5 37.507812 L 171.5 43.074219 C 172.101562 43.261719 172.71875 43.433594 173.355469 43.585938 L 173.355469 38 C 173.210938 37.964844 173.066406 37.933594 172.925781 37.898438 Z M 190.394531 34.050781 C 191.414062 33.78125 192.351562 33.464844 193.191406 33.109375 C 195.769531 32.011719 197.355469 30.582031 197.355469 29.0625 C 197.355469 28.59375 197.203125 28.132812 196.914062 27.6875 C 196.789062 27.496094 196.640625 27.308594 196.472656 27.125 C 196.472656 27.128906 196.46875 27.136719 196.46875 27.144531 C 196.46875 27.160156 196.46875 27.175781 196.46875 27.191406 C 196.464844 27.214844 196.464844 27.242188 196.460938 27.265625 C 196.460938 27.289062 196.457031 27.3125 196.457031 27.335938 C 196.453125 27.359375 196.453125 27.382812 196.449219 27.40625 C 196.449219 27.433594 196.445312 27.457031 196.441406 27.480469 C 196.441406 27.507812 196.4375 27.53125 196.433594 27.558594 C 196.421875 27.628906 196.414062 27.703125 196.398438 27.777344 C 196.398438 27.796875 196.394531 27.816406 196.390625 27.835938 C 196.375 27.921875 196.355469 28.003906 196.335938 28.085938 C 196.335938 28.09375 196.332031 28.105469 196.332031 28.113281 C 196.214844 28.597656 196.03125 29.070312 195.785156 29.53125 C 195.777344 29.542969 195.769531 29.554688 195.761719 29.570312 C 195.722656 29.640625 195.679688 29.714844 195.636719 29.785156 C 195.625 29.808594 195.609375 29.835938 195.59375 29.859375 C 195.558594 29.914062 195.523438 29.972656 195.484375 30.03125 C 195.460938 30.0625 195.441406 30.097656 195.417969 30.132812 C 195.390625 30.171875 195.359375 30.210938 195.332031 30.25 C 195.054688 30.644531 194.726562 31.027344 194.355469 31.394531 C 194.339844 31.410156 194.328125 31.425781 194.3125 31.4375 C 193.878906 31.855469 193.394531 32.257812 192.855469 32.636719 C 192.304688 33.019531 191.703125 33.382812 191.058594 33.722656 C 191.058594 33.722656 191.058594 33.722656 191.054688 33.722656 C 191.050781 33.722656 191.050781 33.726562 191.046875 33.726562 C 190.929688 33.789062 190.808594 33.851562 190.6875 33.910156 C 190.667969 33.921875 190.644531 33.933594 190.621094 33.941406 C 190.546875 33.976562 190.46875 34.015625 190.394531 34.050781 Z M 160.039062 30.6875 C 160.5625 31.171875 161.183594 31.632812 161.894531 32.066406 L 161.894531 26.605469 C 161.839844 26.578125 161.789062 26.546875 161.738281 26.519531 C 161.691406 26.492188 161.648438 26.46875 161.605469 26.441406 C 161.535156 26.402344 161.46875 26.363281 161.402344 26.324219 C 161.355469 26.300781 161.316406 26.273438 161.269531 26.246094 C 161.203125 26.207031 161.136719 26.164062 161.074219 26.125 C 161.03125 26.097656 160.992188 26.074219 160.949219 26.046875 C 160.882812 26.003906 160.816406 25.960938 160.75 25.917969 C 160.714844 25.894531 160.675781 25.867188 160.640625 25.84375 C 160.570312 25.796875 160.503906 25.75 160.433594 25.699219 C 160.402344 25.679688 160.371094 25.65625 160.34375 25.636719 C 160.265625 25.578125 160.1875 25.523438 160.109375 25.464844 C 160.09375 25.453125 160.074219 25.4375 160.054688 25.425781 C 160.050781 25.421875 160.042969 25.417969 160.039062 25.414062 Z M 162.152344 48.875 C 162.675781 49.359375 163.300781 49.820312 164.003906 50.25 L 164.003906 44.789062 C 163.957031 44.761719 163.90625 44.734375 163.855469 44.707031 C 163.804688 44.679688 163.757812 44.648438 163.707031 44.621094 C 163.644531 44.585938 163.582031 44.550781 163.519531 44.511719 C 163.472656 44.484375 163.425781 44.453125 163.378906 44.425781 C 163.316406 44.390625 163.253906 44.351562 163.191406 44.3125 C 163.148438 44.285156 163.101562 44.253906 163.058594 44.226562 C 162.996094 44.1875 162.933594 44.144531 162.871094 44.105469 C 162.832031 44.078125 162.789062 44.050781 162.75 44.023438 C 162.6875 43.980469 162.621094 43.9375 162.558594 43.890625 C 162.523438 43.867188 162.488281 43.839844 162.453125 43.816406 C 162.378906 43.765625 162.308594 43.710938 162.238281 43.660156 C 162.214844 43.640625 162.1875 43.625 162.164062 43.605469 C 162.160156 43.601562 162.15625 43.597656 162.152344 43.597656 Z M 168.421875 46.597656 L 168.421875 52.195312 C 169.015625 52.382812 169.636719 52.554688 170.277344 52.710938 L 170.277344 47.09375 C 169.636719 46.945312 169.019531 46.78125 168.421875 46.597656 Z M 171.558594 52.992188 C 172.160156 53.113281 172.78125 53.214844 173.414062 53.304688 L 173.414062 47.667969 C 172.78125 47.582031 172.164062 47.476562 171.558594 47.363281 Z M 174.695312 53.464844 C 175.300781 53.527344 175.917969 53.578125 176.546875 53.613281 L 176.546875 47.964844 C 175.921875 47.929688 175.300781 47.882812 174.695312 47.820312 Z M 180.964844 47.964844 L 180.964844 53.613281 C 181.59375 53.578125 182.210938 53.527344 182.816406 53.464844 L 182.816406 47.820312 C 182.210938 47.882812 181.589844 47.929688 180.964844 47.964844 Z M 184.101562 53.304688 C 184.730469 53.214844 185.351562 53.113281 185.953125 52.992188 L 185.953125 47.363281 C 185.351562 47.476562 184.730469 47.582031 184.101562 47.667969 Z M 187.234375 52.710938 C 187.875 52.554688 188.496094 52.382812 189.089844 52.195312 L 189.089844 46.601562 C 189.078125 46.605469 189.070312 46.605469 189.0625 46.609375 C 188.472656 46.785156 187.863281 46.945312 187.234375 47.09375 Z M 193.507812 44.789062 L 193.507812 50.25 C 194.210938 49.820312 194.835938 49.359375 195.359375 48.875 L 195.359375 43.597656 C 195.359375 43.601562 195.355469 43.601562 195.351562 43.605469 C 195.285156 43.65625 195.214844 43.707031 195.148438 43.753906 C 195.089844 43.796875 195.03125 43.839844 194.972656 43.882812 C 194.898438 43.933594 194.820312 43.984375 194.742188 44.039062 C 194.6875 44.074219 194.628906 44.113281 194.574219 44.152344 C 194.492188 44.207031 194.402344 44.261719 194.320312 44.3125 C 194.265625 44.347656 194.210938 44.382812 194.15625 44.414062 C 194.0625 44.472656 193.96875 44.527344 193.875 44.582031 C 193.824219 44.613281 193.773438 44.640625 193.722656 44.671875 C 193.648438 44.710938 193.578125 44.75 193.507812 44.789062 Z M 197.589844 40.480469 C 197.894531 40.253906 198.179688 40.019531 198.4375 39.78125 L 198.4375 34.507812 C 198.433594 34.507812 198.429688 34.511719 198.425781 34.515625 C 198.40625 34.53125 198.386719 34.546875 198.367188 34.5625 C 198.289062 34.617188 198.214844 34.675781 198.136719 34.730469 C 198.105469 34.75 198.074219 34.773438 198.042969 34.796875 C 197.976562 34.84375 197.90625 34.890625 197.835938 34.9375 C 197.800781 34.960938 197.761719 34.988281 197.726562 35.011719 C 197.660156 35.054688 197.59375 35.097656 197.527344 35.140625 C 197.488281 35.167969 197.445312 35.195312 197.40625 35.21875 C 197.339844 35.261719 197.273438 35.300781 197.207031 35.34375 C 197.164062 35.367188 197.121094 35.394531 197.078125 35.421875 C 197.011719 35.460938 196.941406 35.5 196.871094 35.539062 C 196.828125 35.566406 196.785156 35.589844 196.742188 35.613281 C 196.691406 35.644531 196.636719 35.671875 196.585938 35.703125 L 196.585938 41.140625 C 196.910156 40.949219 197.234375 40.75 197.570312 40.496094 C 197.578125 40.488281 197.582031 40.488281 197.589844 40.480469 Z M 158.089844 19.96875 C 158.089844 20.664062 158.28125 21.347656 158.632812 22 C 158.914062 22.523438 159.304688 23.03125 159.792969 23.519531 C 159.832031 23.550781 159.867188 23.582031 159.898438 23.621094 C 160.652344 24.351562 161.625 25.027344 162.773438 25.632812 C 162.808594 25.644531 162.84375 25.664062 162.875 25.683594 C 163.027344 25.765625 163.1875 25.84375 163.347656 25.921875 C 164.109375 26.289062 164.941406 26.621094 165.824219 26.921875 C 165.859375 26.929688 165.890625 26.941406 165.921875 26.953125 C 166.855469 27.265625 167.851562 27.539062 168.902344 27.765625 C 168.925781 27.769531 168.949219 27.773438 168.972656 27.777344 C 169.9375 27.984375 170.949219 28.15625 171.996094 28.28125 C 172.003906 28.285156 172.011719 28.285156 172.023438 28.285156 C 173.5 28.464844 175.046875 28.558594 176.644531 28.558594 C 178.238281 28.558594 179.785156 28.464844 181.261719 28.285156 C 181.269531 28.285156 181.28125 28.285156 181.289062 28.285156 C 182.339844 28.15625 183.351562 27.988281 184.316406 27.78125 C 184.339844 27.773438 184.359375 27.769531 184.382812 27.765625 C 185.429688 27.539062 186.429688 27.265625 187.363281 26.957031 C 187.394531 26.941406 187.425781 26.933594 187.460938 26.921875 C 188.34375 26.625 189.175781 26.289062 189.9375 25.921875 C 190.097656 25.84375 190.257812 25.765625 190.414062 25.683594 C 190.445312 25.664062 190.476562 25.648438 190.507812 25.636719 C 191.660156 25.03125 192.632812 24.355469 193.386719 23.625 C 193.417969 23.585938 193.453125 23.550781 193.492188 23.523438 C 194.101562 22.910156 194.5625 22.265625 194.851562 21.59375 C 195.074219 21.066406 195.195312 20.523438 195.195312 19.972656 C 195.195312 17.691406 193.183594 15.582031 189.9375 14.019531 C 186.550781 12.390625 181.847656 11.382812 176.644531 11.382812 C 171.4375 11.382812 166.738281 12.390625 163.347656 14.019531 C 160.101562 15.582031 158.089844 17.6875 158.089844 19.96875 Z M 158.089844 26.902344 C 158.089844 27.675781 158.324219 28.429688 158.757812 29.152344 L 158.757812 24.28125 C 158.734375 24.257812 158.714844 24.238281 158.695312 24.214844 C 158.644531 24.160156 158.59375 24.109375 158.542969 24.050781 C 158.519531 24.027344 158.496094 24 158.476562 23.972656 C 158.425781 23.917969 158.378906 23.863281 158.332031 23.808594 C 158.3125 23.785156 158.292969 23.757812 158.269531 23.734375 C 158.222656 23.675781 158.179688 23.617188 158.132812 23.558594 C 158.121094 23.542969 158.105469 23.523438 158.089844 23.507812 Z M 160.878906 35.894531 C 160.441406 36.613281 160.207031 37.371094 160.207031 38.15625 C 160.207031 38.535156 160.261719 38.910156 160.371094 39.28125 C 160.910156 41.125 162.753906 42.804688 165.460938 44.105469 C 168.851562 45.734375 173.550781 46.742188 178.757812 46.742188 C 182.410156 46.742188 185.816406 46.246094 188.695312 45.382812 C 188.773438 45.359375 188.851562 45.335938 188.929688 45.3125 C 189.019531 45.285156 189.109375 45.257812 189.199219 45.230469 C 189.28125 45.203125 189.363281 45.171875 189.445312 45.148438 C 189.511719 45.125 189.578125 45.101562 189.644531 45.082031 C 189.160156 45.183594 188.6875 45.273438 188.222656 45.347656 C 187.703125 45.433594 187.167969 45.511719 186.628906 45.578125 C 186.613281 45.578125 186.601562 45.578125 186.589844 45.582031 C 185.222656 45.746094 183.796875 45.84375 182.332031 45.859375 C 182.164062 45.863281 182 45.863281 181.835938 45.863281 C 180.195312 45.863281 178.601562 45.765625 177.078125 45.582031 C 177.066406 45.578125 177.054688 45.578125 177.039062 45.578125 C 176.359375 45.492188 175.695312 45.394531 175.046875 45.277344 C 171.351562 44.925781 168.117188 44.058594 165.8125 42.867188 C 163.398438 41.617188 161.953125 39.984375 161.953125 38.15625 C 161.953125 37.949219 161.976562 37.738281 162.015625 37.523438 L 162.015625 37.519531 C 162.042969 37.378906 162.078125 37.234375 162.121094 37.09375 C 162.085938 36.925781 162.058594 36.757812 162.039062 36.585938 C 162.039062 36.582031 162.035156 36.578125 162.035156 36.574219 C 162.035156 36.574219 162.035156 36.570312 162.035156 36.570312 C 162.015625 36.382812 162.003906 36.1875 162.003906 35.996094 C 162.003906 35.996094 162.003906 35.996094 162.003906 35.992188 L 162.003906 34.511719 C 161.542969 34.953125 161.167969 35.417969 160.878906 35.894531 Z M 160.207031 45.085938 C 160.207031 45.859375 160.4375 46.617188 160.871094 47.335938 L 160.871094 42.464844 C 160.847656 42.445312 160.828125 42.421875 160.804688 42.398438 C 160.757812 42.34375 160.707031 42.292969 160.660156 42.238281 C 160.636719 42.210938 160.613281 42.183594 160.585938 42.15625 C 160.539062 42.105469 160.496094 42.050781 160.449219 41.996094 C 160.425781 41.96875 160.402344 41.941406 160.382812 41.914062 C 160.335938 41.859375 160.292969 41.804688 160.25 41.746094 C 160.234375 41.730469 160.21875 41.710938 160.203125 41.691406 L 160.203125 45.085938 Z M 165.460938 51.035156 C 165.988281 51.289062 166.550781 51.53125 167.140625 51.753906 L 167.140625 46.179688 C 166.492188 45.949219 165.871094 45.699219 165.285156 45.429688 L 165.285156 50.949219 C 165.34375 50.980469 165.402344 51.007812 165.460938 51.035156 Z M 179.683594 53.664062 L 179.683594 48.011719 C 179.375 48.019531 179.066406 48.023438 178.757812 48.023438 C 178.445312 48.023438 178.136719 48.019531 177.828125 48.011719 L 177.828125 53.664062 C 178.136719 53.667969 178.445312 53.671875 178.757812 53.671875 C 179.066406 53.675781 179.375 53.671875 179.683594 53.664062 Z M 192.050781 51.035156 C 192.109375 51.007812 192.167969 50.980469 192.222656 50.949219 L 192.222656 45.433594 C 192.109375 45.484375 191.992188 45.535156 191.875 45.585938 C 191.851562 45.597656 191.832031 45.609375 191.808594 45.617188 C 191.644531 45.691406 191.476562 45.757812 191.304688 45.828125 C 191.300781 45.828125 191.296875 45.832031 191.292969 45.832031 C 190.992188 45.953125 190.683594 46.070312 190.371094 46.179688 L 190.371094 51.753906 C 190.960938 51.53125 191.523438 51.289062 192.050781 51.035156 Z M 197.308594 42.210938 C 197.101562 42.34375 196.867188 42.476562 196.640625 42.601562 L 196.640625 47.335938 C 197.074219 46.617188 197.308594 45.859375 197.308594 45.085938 Z M 200.347656 32.648438 C 200.300781 32.707031 200.253906 32.769531 200.207031 32.828125 C 200.183594 32.851562 200.164062 32.875 200.144531 32.898438 C 200.097656 32.957031 200.050781 33.011719 200 33.070312 C 199.976562 33.09375 199.953125 33.121094 199.933594 33.144531 C 199.882812 33.199219 199.832031 33.253906 199.78125 33.308594 C 199.761719 33.332031 199.738281 33.351562 199.71875 33.375 L 199.71875 38.246094 C 200.152344 37.523438 200.386719 36.769531 200.386719 35.992188 L 200.386719 32.601562 C 200.375 32.617188 200.359375 32.632812 200.347656 32.648438 Z M 200.347656 32.648438 " fill-opacity="1" fill-rule="nonzero"/></g><path fill="#545454" d="M 239.726562 42.570312 C 235.761719 44.140625 234.59375 50.40625 240.160156 54.347656 C 243.367188 56.851562 248.726562 56.324219 250.613281 52.226562 C 252.679688 52.824219 255.136719 52.925781 257.828125 51.984375 C 258.894531 54.542969 261.4375 56.070312 263.964844 56 C 266.335938 56.007812 268.386719 54.929688 269.964844 53.160156 C 273.53125 49.199219 272.503906 45.941406 271.480469 44.09375 C 271.46875 42.066406 270.152344 40.28125 268.054688 39.4375 C 267.585938 39.25 267.183594 38.964844 266.851562 38.582031 C 266.515625 38.203125 266.289062 37.765625 266.167969 37.273438 C 265.398438 34.109375 263.738281 32.734375 262.460938 32.136719 C 265.300781 29.6875 266.363281 25.863281 264.953125 22.503906 C 268.085938 20.414062 268.378906 15.585938 265.492188 13.152344 C 262.253906 10.179688 256.71875 11.878906 255.699219 16.132812 C 254.355469 15.96875 253.015625 16.003906 251.679688 16.230469 C 250.722656 11.953125 245.585938 10.15625 242.429688 13.222656 C 239.636719 15.730469 239.867188 20.820312 242.9375 22.949219 C 241.410156 27.121094 243.84375 31.617188 247.71875 33.609375 C 247.558594 34.449219 247.539062 35.910156 248.765625 37.332031 C 248.902344 37.488281 249.0625 37.621094 249.25 37.71875 C 249.433594 37.820312 249.628906 37.882812 249.835938 37.910156 C 250.046875 37.9375 250.25 37.929688 250.457031 37.882812 C 250.660156 37.835938 250.847656 37.753906 251.023438 37.636719 C 250.179688 39.042969 249.707031 40.566406 249.613281 42.207031 C 249.601562 42.359375 249.652344 42.492188 249.765625 42.601562 C 249.878906 42.710938 250.011719 42.757812 250.164062 42.746094 L 252.113281 42.582031 C 252.578125 42.546875 252.988281 42.375 253.339844 42.066406 C 253.691406 41.761719 253.917969 41.378906 254.023438 40.925781 C 254.292969 39.746094 254.835938 38.074219 255.890625 36.566406 L 256.289062 36.855469 C 257.832031 38.761719 258.511719 40.910156 258.777344 42.039062 L 256.527344 41.355469 C 256.496094 40.710938 256.402344 40.078125 256.253906 39.457031 C 256.222656 39.316406 256.144531 39.210938 256.027344 39.136719 C 255.90625 39.0625 255.777344 39.042969 255.636719 39.074219 C 255.5 39.109375 255.394531 39.1875 255.320312 39.304688 C 255.246094 39.425781 255.226562 39.554688 255.257812 39.695312 C 255.417969 40.367188 255.503906 41.050781 255.515625 41.746094 C 255.519531 41.996094 255.640625 42.15625 255.878906 42.226562 L 259.292969 43.269531 C 259.375 43.292969 259.457031 43.296875 259.542969 43.277344 C 259.628906 43.261719 259.703125 43.222656 259.769531 43.167969 C 259.835938 43.113281 259.882812 43.042969 259.914062 42.964844 C 259.949219 42.882812 259.957031 42.800781 259.949219 42.714844 C 259.691406 41.082031 259.15625 39.542969 258.351562 38.101562 C 258.75 38.148438 259.117188 38.066406 259.457031 37.855469 C 259.796875 37.644531 260.035156 37.351562 260.171875 36.980469 C 260.554688 35.902344 260.691406 34.792969 260.578125 33.65625 C 260.714844 33.523438 260.84375 33.386719 260.960938 33.246094 C 261.160156 33.125 261.347656 33 261.535156 32.867188 C 262.808594 33.28125 264.421875 34.429688 265.171875 37.515625 C 265.335938 38.167969 265.636719 38.746094 266.078125 39.253906 C 266.519531 39.761719 267.050781 40.140625 267.675781 40.390625 C 268.601562 40.761719 269.574219 41.480469 270.089844 42.527344 C 268.316406 41.121094 265.773438 41.34375 264.132812 42.40625 C 264.238281 40.210938 263.910156 37.527344 263.242188 35.550781 C 263.199219 35.417969 263.113281 35.316406 262.988281 35.253906 C 262.863281 35.191406 262.730469 35.179688 262.597656 35.226562 C 262.460938 35.269531 262.363281 35.355469 262.300781 35.480469 C 262.238281 35.605469 262.226562 35.738281 262.269531 35.871094 C 262.976562 37.960938 263.285156 40.921875 263.054688 43.171875 C 262.578125 43.566406 262.148438 44.003906 261.769531 44.484375 C 261.507812 44.808594 261.769531 45.320312 262.175781 45.304688 C 262.347656 45.304688 262.480469 45.238281 262.585938 45.101562 C 262.550781 44.996094 265.601562 41.605469 268.4375 42.78125 C 265.707031 43.695312 263.894531 47.488281 264.84375 50.269531 C 265.359375 51.953125 266.640625 53.128906 268.296875 53.359375 C 265.929688 55.425781 260.472656 56.445312 258.425781 50.722656 C 258.203125 50.097656 257.273438 50.390625 257.453125 51.03125 C 254.953125 51.886719 252.808594 51.769531 250.984375 51.269531 C 251.09375 50.925781 251.183594 50.578125 251.253906 50.222656 C 251.363281 49.558594 250.394531 49.367188 250.246094 50.027344 C 249.015625 55.738281 243.714844 55.460938 241.1875 53.8125 C 246.085938 52.25 244.375 44.71875 239.722656 43.6875 C 242.273438 42.246094 245.609375 45.109375 245.5625 45.1875 C 245.660156 45.289062 245.78125 45.339844 245.921875 45.339844 C 246.0625 45.339844 246.183594 45.292969 246.285156 45.191406 C 246.382812 45.09375 246.433594 44.972656 246.4375 44.832031 C 246.4375 44.691406 246.390625 44.570312 246.289062 44.46875 C 245.777344 43.972656 245.214844 43.550781 244.597656 43.195312 C 244.507812 42.304688 244.519531 41.417969 244.628906 40.527344 C 244.921875 38.066406 246.046875 35.621094 246.058594 35.597656 C 246.328125 34.980469 245.429688 34.5625 245.128906 35.167969 C 245.109375 35.207031 244.925781 35.609375 244.6875 36.238281 C 239.148438 35.816406 235.019531 31.925781 233.148438 28.667969 C 232.941406 28.300781 232.800781 27.910156 232.726562 27.492188 C 232.652344 27.078125 232.648438 26.664062 232.71875 26.246094 C 232.785156 25.828125 232.921875 25.4375 233.125 25.066406 C 233.328125 24.695312 233.585938 24.371094 233.898438 24.085938 C 235.386719 22.695312 237.9375 22.882812 239.203125 24.480469 C 239.617188 24.980469 240.0625 25.472656 240.523438 25.9375 C 240.625 26.039062 240.742188 26.089844 240.886719 26.089844 C 241.027344 26.089844 241.148438 26.039062 241.246094 25.941406 C 241.347656 25.839844 241.398438 25.71875 241.398438 25.578125 C 241.398438 25.4375 241.351562 25.316406 241.25 25.214844 C 240.8125 24.773438 240.386719 24.304688 239.992188 23.828125 C 238.375 21.789062 235.117188 21.546875 233.214844 23.324219 C 227.796875 28.417969 237.855469 36.890625 244.339844 37.234375 C 243.808594 38.796875 243.410156 40.925781 243.53125 42.679688 C 242.4375 42.253906 241.113281 42.054688 239.726562 42.570312 Z M 261.214844 12.679688 C 266.113281 12.410156 268.410156 18.605469 264.5 21.570312 C 264.226562 21.089844 263.914062 20.632812 263.5625 20.207031 C 266.089844 18.242188 264.519531 14.125 261.3125 14.328125 C 260.972656 14.347656 260.640625 14.421875 260.320312 14.542969 C 260 14.667969 259.707031 14.835938 259.441406 15.050781 C 259.171875 15.261719 258.941406 15.511719 258.753906 15.796875 C 258.5625 16.082031 258.417969 16.390625 258.324219 16.71875 C 257.796875 16.542969 257.261719 16.402344 256.714844 16.292969 C 256.855469 15.796875 257.070312 15.332031 257.355469 14.902344 C 257.640625 14.46875 257.984375 14.09375 258.386719 13.769531 C 258.792969 13.445312 259.234375 13.191406 259.71875 13.003906 C 260.199219 12.816406 260.699219 12.710938 261.214844 12.679688 Z M 262.867188 19.449219 C 261.820312 18.433594 260.628906 17.644531 259.285156 17.082031 C 259.40625 16.597656 259.660156 16.195312 260.046875 15.875 C 260.429688 15.554688 260.875 15.378906 261.375 15.347656 C 263.625 15.210938 264.691406 18.128906 262.867188 19.449219 Z M 241.496094 17.503906 C 241.929688 11.921875 249.125 10.792969 250.675781 16.441406 C 248.355469 17.027344 246.34375 18.203125 244.890625 19.757812 C 243.210938 18.421875 244.148438 15.339844 246.328125 15.46875 C 246.851562 15.511719 247.296875 15.726562 247.652344 16.117188 C 247.75 16.21875 247.867188 16.269531 248.007812 16.273438 C 248.148438 16.277344 248.269531 16.230469 248.371094 16.136719 C 248.472656 16.039062 248.527344 15.921875 248.53125 15.78125 C 248.539062 15.640625 248.492188 15.519531 248.398438 15.417969 C 247.859375 14.832031 247.191406 14.507812 246.398438 14.449219 C 243.234375 14.246094 241.792969 18.585938 244.234375 20.542969 C 243.894531 20.992188 243.597656 21.46875 243.347656 21.972656 C 242.074219 20.941406 241.371094 19.265625 241.496094 17.503906 Z M 250.320312 36.855469 C 250.011719 36.976562 249.753906 36.910156 249.539062 36.660156 C 248.71875 35.710938 248.601562 34.761719 248.679688 34.074219 C 249.0625 34.246094 249.449219 34.390625 249.847656 34.511719 C 250.707031 35.027344 251.628906 35.386719 252.613281 35.578125 Z M 253.023438 40.695312 C 252.972656 40.933594 252.851562 41.132812 252.667969 41.292969 C 252.484375 41.453125 252.269531 41.542969 252.027344 41.5625 L 250.6875 41.675781 C 250.984375 39.292969 252.1875 37.527344 253.1875 36.429688 L 254.359375 35.777344 C 254.511719 35.785156 254.664062 35.785156 254.816406 35.78125 C 254.816406 35.78125 254.820312 35.785156 254.824219 35.789062 L 255.066406 35.964844 C 253.90625 37.609375 253.316406 39.421875 253.023438 40.695312 Z M 253.949219 31.203125 C 251.988281 30.050781 252.488281 28.550781 254.765625 28.539062 C 255.601562 28.546875 256.757812 28.800781 256.875 29.636719 C 256.960938 30.382812 256.28125 30.816406 255.675781 31.195312 C 255.410156 31.347656 255.121094 31.425781 254.8125 31.429688 C 254.503906 31.429688 254.21875 31.355469 253.949219 31.203125 Z M 259.207031 36.628906 C 259.175781 36.722656 259.121094 36.804688 259.050781 36.878906 C 258.984375 36.949219 258.902344 37.003906 258.808594 37.039062 C 258.714844 37.074219 258.621094 37.089844 258.519531 37.085938 C 258.421875 37.082031 258.324219 37.054688 258.238281 37.011719 L 256.359375 35.640625 C 257.519531 35.457031 258.597656 35.050781 259.59375 34.425781 C 259.59375 35.183594 259.464844 35.917969 259.207031 36.628906 Z M 255.324219 34.734375 L 255.324219 32.398438 C 256.171875 32.234375 257.015625 31.605469 257.507812 30.972656 C 258.144531 30.1875 257.996094 28.828125 257.171875 28.238281 C 255.769531 27.101562 252.144531 27.171875 251.746094 29.355469 C 251.640625 29.933594 251.761719 30.457031 252.109375 30.925781 C 252.652344 31.628906 253.414062 32.234375 254.296875 32.402344 L 254.296875 34.753906 C 246.070312 34.25 246.472656 26.269531 254.652344 26.109375 C 262.601562 26.238281 263.351562 33.980469 255.324219 34.734375 Z M 261.984375 31.1875 C 262.652344 27.363281 258.222656 24.988281 254.652344 25.085938 C 250.554688 24.941406 245.539062 28.207031 247.808594 32.484375 C 239.378906 27.339844 244.386719 16.957031 254.03125 17.054688 C 262.425781 16.898438 268.117188 25.390625 261.984375 31.1875 Z M 267.695312 52.148438 C 263.828125 50.300781 265.863281 43.882812 269.707031 43.53125 C 271.707031 45.503906 272.441406 48.824219 269.324219 52.339844 C 268.761719 52.429688 268.21875 52.363281 267.695312 52.148438 Z M 242.425781 47 C 243.953125 49.601562 242.902344 52.9375 240.035156 52.941406 C 236.640625 50 236.890625 46.742188 238.558594 44.589844 C 240.019531 44.539062 241.550781 45.488281 242.425781 47 Z M 242.425781 47 " fill-opacity="1" fill-rule="nonzero"/><path fill="#545454" d="M 251.578125 21.441406 C 251.4375 21.441406 251.316406 21.492188 251.21875 21.59375 C 251.117188 21.691406 251.066406 21.8125 251.066406 21.957031 L 251.066406 22.304688 C 251.066406 22.445312 251.117188 22.566406 251.21875 22.667969 C 251.316406 22.765625 251.4375 22.816406 251.578125 22.816406 C 251.722656 22.816406 251.839844 22.765625 251.941406 22.667969 C 252.042969 22.566406 252.089844 22.445312 252.089844 22.304688 L 252.089844 21.957031 C 252.089844 21.8125 252.042969 21.691406 251.941406 21.59375 C 251.839844 21.492188 251.722656 21.441406 251.578125 21.441406 Z M 251.578125 21.441406 " fill-opacity="1" fill-rule="nonzero"/><path fill="#545454" d="M 257.074219 21.441406 C 256.933594 21.441406 256.8125 21.492188 256.714844 21.59375 C 256.613281 21.691406 256.5625 21.8125 256.5625 21.957031 L 256.5625 22.304688 C 256.5625 22.445312 256.613281 22.566406 256.714844 22.667969 C 256.8125 22.765625 256.933594 22.816406 257.074219 22.816406 C 257.214844 22.816406 257.335938 22.765625 257.4375 22.667969 C 257.539062 22.566406 257.585938 22.445312 257.585938 22.304688 L 257.585938 21.957031 C 257.585938 21.8125 257.539062 21.691406 257.4375 21.59375 C 257.335938 21.492188 257.214844 21.441406 257.074219 21.441406 Z M 257.074219 21.441406 " fill-opacity="1" fill-rule="nonzero"/></svg>