<?xml version="1.0" standalone="no"?>
<!DOCTYPE svg PUBLIC "-//W3C//DTD SVG 20010904//EN"
 "http://www.w3.org/TR/2001/REC-SVG-20010904/DTD/svg10.dtd">
<svg version="1.0" xmlns="http://www.w3.org/2000/svg"
 width="418.000000pt" height="383.000000pt" viewBox="0 0 418.000000 383.000000"
 preserveAspectRatio="xMidYMid meet">

<g transform="translate(0.000000,383.000000) scale(0.100000,-0.100000)"
fill="#000000" stroke="none">
<path d="M3086 3691 c-4 -7 -5 -15 -2 -18 9 -9 19 4 14 18 -4 11 -6 11 -12 0z"/>
<path d="M1130 1719 c-99 -77 -106 -90 -10 -19 47 35 87 65 89 67 2 2 0 3 -5
3 -5 0 -38 -23 -74 -51z"/>
<path d="M3076 1065 c-4 -16 -11 -46 -15 -65 -5 -19 -6 -62 -2 -94 5 -52 8
-57 20 -42 14 17 11 88 -5 130 -6 16 -4 18 9 13 19 -7 20 5 7 58 l-7 30 -7
-30z"/>
<path d="M2917 1074 c-10 -10 -9 -114 2 -114 12 0 22 75 13 100 -4 11 -11 18
-15 14z"/>
<path d="M2963 1062 c-8 -5 -9 -13 -3 -22 7 -12 10 -12 16 3 8 21 3 29 -13 19z"/>
<path d="M3030 1045 c0 -8 5 -15 10 -15 6 0 10 7 10 15 0 8 -4 15 -10 15 -5 0
-10 -7 -10 -15z"/>
<path d="M2850 1038 c0 -7 7 -22 15 -32 12 -16 15 -17 15 -4 0 24 -11 48 -21
48 -5 0 -9 -6 -9 -12z"/>
<path d="M3136 1041 c-4 -7 -5 -15 -2 -18 9 -9 19 4 14 18 -4 11 -6 11 -12 0z"/>
<path d="M2996 1031 c-3 -5 1 -11 9 -15 8 -3 15 -1 15 4 0 13 -18 22 -24 11z"/>
<path d="M2820 1020 c0 -22 63 -127 67 -113 4 12 -25 75 -51 108 -11 15 -15
16 -16 5z"/>
<path d="M3277 995 c-17 -23 -18 -70 -2 -70 8 0 33 59 34 83 1 19 -12 14 -32
-13z"/>
<path d="M3140 968 c-35 -77 -18 -92 20 -18 22 44 25 60 10 60 -6 0 -20 -19
-30 -42z"/>
<path d="M3240 990 c-8 -5 -12 -12 -9 -15 4 -3 12 1 19 10 14 17 11 19 -10 5z"/>
<path d="M2760 976 c0 -16 24 -38 33 -30 7 7 -14 44 -25 44 -5 0 -8 -6 -8 -14z"/>
<path d="M2727 943 c23 -49 22 -48 34 -36 8 8 5 20 -12 42 -31 42 -42 39 -22
-6z"/>
<path d="M3190 961 c-7 -15 -7 -21 0 -21 12 0 25 28 17 36 -3 3 -10 -4 -17
-15z"/>
<path d="M3316 964 c-4 -10 -1 -14 6 -12 15 5 23 28 10 28 -5 0 -13 -7 -16
-16z"/>
<path d="M2940 958 c0 -7 -3 -23 -6 -35 -5 -17 -2 -23 10 -23 9 0 17 9 18 20
0 11 1 25 2 32 1 6 -5 13 -11 16 -7 2 -13 -2 -13 -10z"/>
<path d="M2990 961 c0 -6 5 -13 10 -16 6 -3 10 1 10 9 0 9 -4 16 -10 16 -5 0
-10 -4 -10 -9z"/>
<path d="M2685 951 c-3 -5 -1 -12 5 -16 5 -3 10 1 10 9 0 18 -6 21 -15 7z"/>
<path d="M2810 927 c0 -22 64 -96 74 -86 7 7 -54 109 -65 109 -5 0 -9 -10 -9
-23z"/>
<path d="M3201 885 c-35 -49 -36 -64 -2 -45 12 6 21 21 21 35 0 13 5 25 12 27
6 2 9 10 7 17 -3 7 -19 -7 -38 -34z"/>
<path d="M2696 885 c14 -19 30 -35 34 -35 15 0 -2 41 -23 55 -35 25 -40 17
-11 -20z"/>
<path d="M3150 880 c-11 -22 -16 -40 -12 -40 5 0 21 18 36 40 20 30 23 40 11
40 -8 0 -24 -18 -35 -40z"/>
<path d="M3295 909 c-4 -6 -5 -13 -2 -16 7 -7 27 6 27 18 0 12 -17 12 -25 -2z"/>
<path d="M3340 905 c-10 -12 -10 -15 4 -15 9 0 16 7 16 15 0 8 -2 15 -4 15 -2
0 -9 -7 -16 -15z"/>
<path d="M2640 893 c0 -11 7 -24 16 -27 27 -10 30 3 6 27 l-22 21 0 -21z"/>
<path d="M3240 874 c0 -9 5 -14 12 -12 18 6 21 28 4 28 -9 0 -16 -7 -16 -16z"/>
<path d="M2560 860 c0 -5 5 -10 10 -10 6 0 10 5 10 10 0 6 -4 10 -10 10 -5 0
-10 -4 -10 -10z"/>
<path d="M3305 855 l-30 -13 32 -1 c37 -1 63 7 63 20 0 13 -30 10 -65 -6z"/>
<path d="M2815 840 c-3 -5 1 -13 10 -16 22 -9 29 1 11 15 -10 8 -16 9 -21 1z"/>
<path d="M2934 828 c3 -13 6 -26 6 -30 0 -5 5 -8 10 -8 6 0 10 14 10 30 0 21
-5 30 -16 30 -12 0 -15 -6 -10 -22z"/>
<path d="M3450 840 c0 -5 5 -10 10 -10 6 0 10 5 10 10 0 6 -4 10 -10 10 -5 0
-10 -4 -10 -10z"/>
<path d="M2515 829 c-8 -13 -7 -15 25 -24 25 -8 25 -8 6 14 -22 24 -23 25 -31
10z"/>
<path d="M2680 821 c0 -33 41 -72 68 -65 30 9 28 20 -8 33 -20 7 -30 17 -30
30 0 12 -7 21 -15 21 -8 0 -15 -9 -15 -19z"/>
<path d="M2725 820 c3 -5 11 -10 16 -10 6 0 7 5 4 10 -3 6 -11 10 -16 10 -6 0
-7 -4 -4 -10z"/>
<path d="M3060 811 c0 -11 5 -23 10 -26 6 -3 10 -2 10 4 0 5 3 16 6 25 4 11 1
16 -10 16 -9 0 -16 -8 -16 -19z"/>
<path d="M3107 824 c-4 -4 -7 -14 -7 -23 0 -11 3 -12 11 -4 6 6 10 16 7 23 -2
6 -7 8 -11 4z"/>
<path d="M3210 820 c-8 -5 -11 -12 -7 -16 4 -4 1 -14 -5 -23 -7 -9 0 -5 15 8
37 33 35 55 -3 31z"/>
<path d="M3360 805 c0 -23 2 -24 20 -13 24 15 25 24 4 32 -23 9 -24 8 -24 -19z"/>
<path d="M3470 810 c0 -5 5 -10 10 -10 6 0 10 5 10 10 0 6 -4 10 -10 10 -5 0
-10 -4 -10 -10z"/>
<path d="M3154 804 c-13 -6 -7 -44 7 -44 5 0 9 3 10 8 0 4 2 15 4 25 3 17 -1
19 -21 11z"/>
<path d="M3255 800 c4 -6 11 -8 16 -5 14 9 11 15 -7 15 -8 0 -12 -5 -9 -10z"/>
<path d="M2475 790 c3 -5 8 -10 11 -10 2 0 4 5 4 10 0 6 -5 10 -11 10 -5 0 -7
-4 -4 -10z"/>
<path d="M2805 790 c3 -5 8 -10 11 -10 2 0 4 5 4 10 0 6 -5 10 -11 10 -5 0 -7
-4 -4 -10z"/>
<path d="M2510 776 c0 -9 5 -16 10 -16 6 0 10 4 10 9 0 6 -4 13 -10 16 -5 3
-10 -1 -10 -9z"/>
<path d="M2847 770 c6 -23 19 -26 26 -6 6 16 -1 26 -19 26 -7 0 -10 -8 -7 -20z"/>
<path d="M3378 759 c-28 -26 -30 -29 -10 -24 31 9 28 -9 -5 -24 -25 -11 -26
-14 -10 -23 22 -12 40 1 57 42 7 17 20 30 28 30 12 0 13 -3 4 -12 -7 -7 -12
-19 -12 -27 0 -11 4 -11 19 3 20 18 18 44 -3 58 -20 14 -35 8 -68 -23z"/>
<path d="M2410 766 c0 -8 5 -18 10 -21 6 -3 10 3 10 14 0 12 -4 21 -10 21 -5
0 -10 -6 -10 -14z"/>
<path d="M2447 750 c-3 -11 -2 -20 3 -20 12 0 21 28 11 35 -5 2 -11 -4 -14
-15z"/>
<path d="M2648 754 c24 -17 39 -14 27 5 -3 6 -16 11 -28 11 l-21 0 22 -16z"/>
<path d="M3106 730 c-9 -22 -16 -57 -16 -78 l1 -37 24 45 c25 46 32 94 16 104
-5 3 -16 -12 -25 -34z"/>
<path d="M3286 756 c-26 -8 -34 -14 -25 -18 24 -9 69 3 69 18 0 8 -1 14 -2 13
-2 -1 -21 -7 -42 -13z"/>
<path d="M2582 739 c-7 -12 -11 -23 -8 -27 9 -8 46 29 40 39 -8 14 -18 10 -32
-12z"/>
<path d="M2885 731 c-4 -13 -2 -28 4 -34 6 -6 11 -21 11 -34 0 -13 5 -23 10
-23 6 0 10 6 10 13 0 6 3 21 6 33 3 12 -2 30 -14 44 l-19 24 -8 -23z"/>
<path d="M2755 730 c3 -5 8 -10 11 -10 2 0 4 5 4 10 0 6 -5 10 -11 10 -5 0 -7
-4 -4 -10z"/>
<path d="M2816 713 c8 -33 40 -70 51 -59 9 9 -29 78 -46 84 -8 3 -10 -5 -5
-25z"/>
<path d="M2527 709 c-4 -16 -3 -18 9 -8 16 13 19 29 5 29 -5 0 -11 -9 -14 -21z"/>
<path d="M3040 699 c0 -17 4 -28 10 -24 6 3 10 17 10 31 0 13 -4 24 -10 24 -5
0 -10 -14 -10 -31z"/>
<path d="M3180 711 c-13 -26 -13 -31 4 -25 16 6 29 44 15 44 -4 0 -13 -9 -19
-19z"/>
<path d="M2354 705 c21 -16 32 -13 21 4 -3 6 -14 11 -23 11 -15 -1 -15 -2 2
-15z"/>
<path d="M2410 700 c6 -11 15 -20 21 -20 6 0 6 7 -1 20 -6 11 -15 20 -21 20
-6 0 -6 -7 1 -20z"/>
<path d="M3000 705 c0 -8 5 -15 10 -15 6 0 10 7 10 15 0 8 -4 15 -10 15 -5 0
-10 -7 -10 -15z"/>
<path d="M2740 695 c0 -9 9 -15 21 -15 18 0 19 2 9 15 -7 8 -16 15 -21 15 -5
0 -9 -7 -9 -15z"/>
<path d="M2305 690 c3 -5 11 -10 16 -10 6 0 7 5 4 10 -3 6 -11 10 -16 10 -6 0
-7 -4 -4 -10z"/>
<path d="M2640 686 c0 -19 32 -30 42 -14 13 21 9 28 -17 28 -15 0 -25 -6 -25
-14z"/>
<path d="M2970 678 c0 -14 7 -29 16 -32 12 -5 14 -1 9 17 -11 35 -25 44 -25
15z"/>
<path d="M3225 684 c-9 -9 -13 -19 -10 -22 3 -3 15 4 28 16 12 12 16 22 10 22
-6 0 -19 -7 -28 -16z"/>
<path d="M2566 674 c-4 -9 -4 -19 -2 -21 8 -8 26 8 26 23 0 19 -16 18 -24 -2z"/>
<path d="M2470 671 c0 -17 18 -21 24 -6 3 9 0 15 -9 15 -8 0 -15 -4 -15 -9z"/>
<path d="M2525 650 c-16 -31 -14 -60 3 -60 9 0 24 81 17 88 -2 2 -11 -10 -20
-28z"/>
<path d="M3316 673 c-12 -12 -5 -23 14 -23 11 0 20 4 20 9 0 11 -26 22 -34 14z"/>
<path d="M3455 670 c3 -5 8 -10 11 -10 2 0 4 5 4 10 0 6 -5 10 -11 10 -5 0 -7
-4 -4 -10z"/>
<path d="M2384 635 c9 -20 23 -45 31 -58 l17 -22 -7 25 c-15 50 -34 90 -45 90
-6 0 -5 -13 4 -35z"/>
<path d="M2782 659 c2 -7 10 -15 17 -17 8 -3 12 1 9 9 -2 7 -10 15 -17 17 -8
3 -12 -1 -9 -9z"/>
<path d="M2420 654 c0 -18 24 -84 31 -84 8 0 19 26 19 43 -1 13 -50 53 -50 41z"/>
<path d="M2605 650 c-3 -5 -1 -10 4 -10 6 0 11 5 11 10 0 6 -2 10 -4 10 -3 0
-8 -4 -11 -10z"/>
<path d="M3163 648 c-13 -17 -25 -78 -15 -78 11 0 42 55 42 74 0 19 -14 21
-27 4z"/>
<path d="M2320 646 c0 -3 8 -21 17 -41 12 -25 23 -35 40 -35 25 0 24 8 -6 43
-16 20 -51 41 -51 33z"/>
<path d="M3219 631 c-19 -16 -20 -20 -8 -21 17 0 45 27 37 35 -3 3 -16 -3 -29
-14z"/>
<path d="M3350 630 c-8 -5 -11 -12 -7 -16 4 -4 13 -2 19 4 15 15 7 24 -12 12z"/>
<path d="M3478 633 c7 -3 16 -2 19 1 4 3 -2 6 -13 5 -11 0 -14 -3 -6 -6z"/>
<path d="M2560 619 c0 -5 5 -7 10 -4 6 3 10 8 10 11 0 2 -4 4 -10 4 -5 0 -10
-5 -10 -11z"/>
<path d="M2586 604 c-4 -10 -1 -14 6 -12 15 5 23 28 10 28 -5 0 -13 -7 -16
-16z"/>
<path d="M3265 610 c-3 -6 1 -7 9 -4 18 7 21 14 7 14 -6 0 -13 -4 -16 -10z"/>
<path d="M2850 600 c0 -5 5 -10 10 -10 6 0 10 5 10 10 0 6 -4 10 -10 10 -5 0
-10 -4 -10 -10z"/>
<path d="M2936 602 c-10 -17 4 -56 15 -45 6 6 6 19 1 33 -6 15 -11 19 -16 12z"/>
<path d="M2993 598 c-13 -15 -14 -58 -1 -58 9 0 21 45 16 61 -3 8 -7 7 -15 -3z"/>
<path d="M3026 587 c-3 -12 -6 -42 -6 -67 1 -44 1 -44 15 -20 16 28 20 96 6
104 -5 3 -11 -4 -15 -17z"/>
<path d="M3438 603 c-20 -3 -28 -10 -28 -25 0 -17 4 -19 27 -13 26 6 43 21 43
38 0 4 -3 6 -7 6 -5 -1 -20 -4 -35 -6z"/>
<path d="M3507 603 c-14 -13 -6 -24 15 -21 27 4 36 28 11 28 -11 0 -23 -3 -26
-7z"/>
<path d="M2170 595 c0 -10 53 -85 60 -85 13 0 -2 65 -18 78 -16 12 -42 17 -42
7z"/>
<path d="M2257 566 c28 -34 52 -51 60 -42 8 8 -59 76 -75 76 -9 0 -5 -11 15
-34z"/>
<path d="M2667 593 c-4 -3 -7 -11 -7 -17 0 -6 5 -5 12 2 6 6 9 14 7 17 -3 3
-9 2 -12 -2z"/>
<path d="M3367 580 c3 -11 7 -20 9 -20 2 0 4 9 4 20 0 11 -4 20 -9 20 -5 0 -7
-9 -4 -20z"/>
<path d="M2476 574 c-9 -23 -8 -24 19 -24 23 0 24 2 15 20 -13 24 -26 26 -34
4z"/>
<path d="M2790 576 c0 -8 5 -18 10 -21 6 -3 10 1 10 9 0 8 -4 18 -10 21 -5 3
-10 -1 -10 -9z"/>
<path d="M3194 576 c-10 -8 -15 -18 -11 -22 4 -4 15 0 24 9 22 21 12 31 -13
13z"/>
<path d="M3254 568 c-17 -13 -29 -29 -27 -35 3 -8 -4 -13 -17 -13 -13 0 -20
-5 -17 -12 2 -7 11 -12 21 -10 25 5 19 -12 -20 -52 -20 -20 -35 -39 -33 -41 2
-2 18 3 35 10 25 10 35 25 58 88 20 55 32 74 42 70 8 -3 14 0 14 6 0 18 -24
13 -56 -11z"/>
<path d="M2327 546 c18 -21 32 -30 38 -24 7 6 0 18 -20 34 -43 34 -52 30 -18
-10z"/>
<path d="M2705 554 c-21 -22 -15 -48 13 -52 23 -4 31 13 10 21 -10 4 -10 7 0
18 27 28 5 41 -23 13z"/>
<path d="M2155 540 c-3 -5 -1 -10 4 -10 6 0 11 5 11 10 0 6 -2 10 -4 10 -3 0
-8 -4 -11 -10z"/>
<path d="M2597 543 c-10 -9 -9 -23 2 -23 5 0 11 7 15 15 5 15 -5 20 -17 8z"/>
<path d="M3131 536 c-8 -9 -11 -19 -7 -23 9 -9 29 13 24 27 -2 8 -8 7 -17 -4z"/>
<path d="M3310 534 c0 -8 5 -12 10 -9 6 3 10 10 10 16 0 5 -4 9 -10 9 -5 0
-10 -7 -10 -16z"/>
<path d="M3462 528 c-16 -16 -15 -28 3 -28 8 0 15 9 15 20 0 23 -2 24 -18 8z"/>
<path d="M2067 517 c-3 -9 1 -18 10 -21 23 -9 29 2 11 20 -13 14 -16 14 -21 1z"/>
<path d="M2110 525 c0 -15 34 -55 46 -55 25 0 16 40 -12 50 -29 11 -34 12 -34
5z"/>
<path d="M3390 519 c0 -5 5 -7 10 -4 6 3 10 8 10 11 0 2 -4 4 -10 4 -5 0 -10
-5 -10 -11z"/>
<path d="M2187 506 c-7 -19 1 -46 14 -46 18 0 22 31 7 47 -14 13 -16 13 -21
-1z"/>
<path d="M2380 503 c0 -11 6 -25 12 -31 10 -10 10 -15 -1 -21 -14 -9 -7 -31
10 -31 6 0 7 5 3 11 -3 6 -1 15 6 19 9 6 10 16 3 36 -11 33 -33 44 -33 17z"/>
<path d="M2490 500 c0 -11 7 -20 15 -20 17 0 18 2 9 24 -9 23 -24 20 -24 -4z"/>
<path d="M3076 504 c-11 -28 -6 -39 9 -20 8 11 15 23 15 28 0 14 -18 9 -24 -8z"/>
<path d="M2777 504 c-9 -10 4 -34 19 -34 8 0 14 4 14 9 0 12 -26 32 -33 25z"/>
<path d="M2890 500 c0 -5 7 -10 15 -10 8 0 15 5 15 10 0 6 -7 10 -15 10 -8 0
-15 -4 -15 -10z"/>
<path d="M2320 493 c0 -12 22 -43 30 -43 19 0 10 38 -10 43 -11 3 -20 3 -20 0z"/>
<path d="M2436 458 c15 -49 22 -64 38 -77 22 -18 20 -9 -9 49 -26 52 -41 66
-29 28z"/>
<path d="M3143 465 c-3 -9 -3 -19 1 -22 8 -9 37 18 30 28 -8 14 -24 11 -31 -6z"/>
<path d="M3100 449 c0 -11 5 -17 10 -14 6 3 10 13 10 21 0 8 -4 14 -10 14 -5
0 -10 -9 -10 -21z"/>
<path d="M3412 463 c-15 -6 -6 -23 14 -23 8 0 14 7 14 15 0 15 -6 17 -28 8z"/>
<path d="M2130 450 c0 -13 28 -25 38 -16 3 4 0 11 -8 16 -20 13 -30 12 -30 0z"/>
<path d="M2230 450 c0 -5 5 -10 10 -10 6 0 10 5 10 10 0 6 -4 10 -10 10 -5 0
-10 -4 -10 -10z"/>
<path d="M2496 433 c10 -44 26 -54 22 -14 -2 19 -9 36 -16 39 -9 3 -11 -4 -6
-25z"/>
<path d="M2690 450 c-8 -5 -12 -11 -9 -14 7 -8 49 5 49 15 0 12 -21 11 -40 -1z"/>
<path d="M2085 439 c-9 -14 -2 -20 14 -10 8 6 9 11 3 15 -6 3 -14 1 -17 -5z"/>
<path d="M2303 443 c-18 -7 -16 -20 4 -27 17 -7 36 12 27 26 -6 9 -12 9 -31 1z"/>
<path d="M2830 425 c-8 -9 -8 -15 -2 -15 12 0 26 19 19 26 -2 2 -10 -2 -17
-11z"/>
<path d="M3060 418 c0 -19 2 -20 10 -8 13 19 13 30 0 30 -5 0 -10 -10 -10 -22z"/>
<path d="M2005 420 c-3 -5 1 -10 10 -10 9 0 13 5 10 10 -3 6 -8 10 -10 10 -2
0 -7 -4 -10 -10z"/>
<path d="M2210 414 c0 -8 5 -12 10 -9 6 3 10 10 10 16 0 5 -4 9 -10 9 -5 0
-10 -7 -10 -16z"/>
<path d="M2730 421 c0 -11 26 -22 34 -14 3 3 3 10 0 14 -7 12 -34 11 -34 0z"/>
<path d="M3315 420 c-8 -13 5 -13 25 0 13 8 13 10 -2 10 -9 0 -20 -4 -23 -10z"/>
<path d="M3370 416 c0 -16 43 -27 62 -14 10 6 10 10 -2 18 -22 14 -60 12 -60
-4z"/>
<path d="M2379 400 c13 -11 28 -20 35 -20 6 1 0 10 -13 20 -13 11 -28 20 -35
20 -6 -1 0 -10 13 -20z"/>
<path d="M2080 402 c0 -16 34 -39 65 -45 17 -3 39 -9 50 -12 19 -6 19 -6 3 8
-10 8 -18 19 -18 26 0 6 -17 11 -40 11 -22 0 -40 5 -40 10 0 6 -4 10 -10 10
-5 0 -10 -4 -10 -8z"/>
<path d="M2895 390 c10 -11 22 -20 27 -20 5 0 4 9 -2 20 -6 11 -18 20 -27 20
-14 0 -14 -2 2 -20z"/>
<path d="M2940 401 c0 -15 43 -112 47 -107 7 7 -30 116 -39 116 -4 0 -8 -4 -8
-9z"/>
<path d="M3014 395 c-6 -14 3 -52 10 -44 2 2 6 16 10 32 7 29 -10 39 -20 12z"/>
<path d="M2591 386 c-13 -7 -20 -15 -15 -18 14 -8 75 12 69 22 -8 13 -25 12
-54 -4z"/>
<path d="M3173 384 c-34 -14 -41 -28 -22 -40 11 -6 68 41 58 49 -2 2 -19 -2
-36 -9z"/>
<path d="M2860 382 c0 -10 22 -32 32 -32 5 0 3 9 -4 20 -13 20 -28 27 -28 12z"/>
<path d="M2220 371 c0 -5 5 -13 10 -16 6 -3 10 -2 10 4 0 5 -4 13 -10 16 -5 3
-10 2 -10 -4z"/>
<path d="M2310 365 c0 -8 6 -15 14 -15 22 0 28 17 10 24 -22 9 -24 8 -24 -9z"/>
<path d="M2675 360 c3 -5 10 -10 16 -10 5 0 9 5 9 10 0 6 -7 10 -16 10 -8 0
-12 -4 -9 -10z"/>
<path d="M2380 351 c0 -13 29 -35 37 -28 7 8 -15 37 -28 37 -5 0 -9 -4 -9 -9z"/>
<path d="M2835 350 c3 -5 8 -10 11 -10 2 0 4 5 4 10 0 6 -5 10 -11 10 -5 0 -7
-4 -4 -10z"/>
<path d="M3210 335 c-18 -19 -20 -25 -8 -25 15 0 48 30 48 43 0 14 -17 6 -40
-18z"/>
<path d="M2469 316 c36 -37 55 -37 45 2 -4 12 -14 22 -24 22 -10 0 -27 3 -37
7 -11 4 -6 -7 16 -31z"/>
<path d="M2535 341 c-3 -2 -5 -15 -5 -28 0 -31 20 -29 54 6 l28 29 -36 -1
c-20 -1 -39 -3 -41 -6z"/>
<path d="M2936 330 c3 -14 10 -29 15 -34 14 -16 10 6 -7 34 l-15 25 7 -25z"/>
<path d="M2321 331 c-7 -5 -23 -6 -35 -3 -16 3 -18 2 -10 -7 12 -13 114 -28
114 -16 0 10 -32 34 -45 35 -5 0 -16 -4 -24 -9z"/>
<path d="M2440 300 c0 -5 7 -10 16 -10 8 0 12 5 9 10 -3 6 -10 10 -16 10 -5 0
-9 -4 -9 -10z"/>
<path d="M2633 303 c-14 -5 -18 -23 -5 -23 5 0 17 7 28 15 14 11 15 14 4 14
-8 0 -21 -3 -27 -6z"/>
<path d="M3075 289 c-9 -27 -4 -30 19 -14 10 8 15 18 11 24 -10 17 -23 13 -30
-10z"/>
<path d="M2235 290 c3 -5 13 -10 21 -10 8 0 14 5 14 10 0 6 -9 10 -21 10 -11
0 -17 -4 -14 -10z"/>
<path d="M3305 290 c-3 -5 -1 -10 4 -10 6 0 11 5 11 10 0 6 -2 10 -4 10 -3 0
-8 -4 -11 -10z"/>
<path d="M2567 274 c-15 -8 -27 -21 -27 -29 0 -21 15 -18 46 8 32 28 20 41
-19 21z"/>
<path d="M2385 272 c6 -5 21 -13 34 -17 17 -5 22 -4 19 6 -3 8 -18 15 -34 17
-19 2 -25 0 -19 -6z"/>
<path d="M2466 255 c6 -14 34 -35 49 -35 4 0 5 10 3 23 -2 16 -11 23 -30 25
-22 3 -27 0 -22 -13z"/>
<path d="M2940 261 c0 -5 7 -12 16 -15 14 -5 15 -4 4 9 -14 17 -20 19 -20 6z"/>
</g>
</svg>
